<svg xmlns="http://www.w3.org/2000/svg">
<defs>
<font id="UTMHelve" horiz-adv-x="1200" >
  <font-face 
    font-family="UTM Helve"
    font-weight="400"
    font-stretch="normal"
    units-per-em="2048"
    panose-1="2 4 6 3 5 5 6 2 2 4"
    ascent="1638"
    descent="-410"
    x-height="1073"
    cap-height="1470"
    bbox="-82 -451 4942 2335"
    underline-thickness="109"
    underline-position="-143"
    unicode-range="U+0020-2026"
  />
<missing-glyph horiz-adv-x="5040" 
d="M3351 2045h10q37 -10 37 -52q0 -12 -32 -57h-28q0 24 28 54l2 10q-5 13 -10 15h-9q-8 0 -10 -19h-30q6 49 42 49zM2019 2016l29 -31q0 -16 -40 -30h-19l-59 12l-11 -12l-28 25q11 29 43 29h11l42 -11h2q10 0 30 18zM468 1980h142v-60h-94v-75h89v-59h-89v-129l-5 -5h-49
v323zM1155 1980h43l6 -5v-78h30v-52h-30v-188l-6 -5h-49v193h-25v52h25v78zM1621 1980h42l4 -5v-94h3q23 24 54 24h2q58 0 83 -71l2 -39v-143h-52v115q0 80 -42 80h-7q-43 0 -43 -86v-109h-51v323zM2200 1980h49l5 -5v-222q10 -51 45 -51q44 7 44 59v214l5 5h49v-216
q0 -85 -66 -112q-15 -8 -35 -8q-47 0 -82 55q-14 24 -14 57v224zM2435 1980h159v-60h-56v-268h-53v268h-55v55zM2621 1980h71q7 -4 83 -251h2l80 251h73v-328h-54v242h-2l-74 -242h-44q-4 0 -58 182l-19 60h-3v-242h-55v328zM3760 1980h52v-328h-45l-5 5v11l3 2l-3 14
q-29 -40 -78 -40q-67 0 -100 91l-5 39v3q0 94 92 125l23 3q35 0 63 -32h3v107zM2057 1928h36l4 -6v-49h-45v-221h-48v23q-23 -31 -59 -31q-89 14 -89 97v156h51v-104q0 -79 26 -86l18 -5h6q26 0 39 36l3 26v133h53v25zM3476 1928v-55h-31v-221h-47v25h-2q-15 -33 -57 -33
q-68 0 -86 78l-3 29v146h52v-120q0 -50 19 -68l21 -7h9q42 0 42 69v126h27q4 0 4 28l3 3h49zM758 1905q68 0 103 -77q9 -18 12 -54q0 -88 -90 -127l-32 -3q-63 0 -101 73q-12 22 -12 52v10q0 94 101 126h19zM1011 1905h3q74 0 83 -101v-152h-51v119q0 76 -42 76h-5
q-44 0 -44 -76v-119h-52v245h46v-21q30 29 62 29zM1466 1905h7q72 0 105 -89h-60q-16 31 -42 31h-17q-53 -14 -53 -61l-3 -15q12 -69 61 -69h9q22 0 47 27h40l2 3h3l2 -3l2 3l3 -3l2 3l2 -7q-33 -81 -110 -81q-76 0 -110 94l-4 36v3q0 85 77 120q15 8 37 8zM3141 1905h2

<glyph glyph-name=".notdef" horiz-adv-x="5040" 
d="M3351 2045h10q37 -10 37 -52q0 -12 -32 -57h-28q0 24 28 54l2 10q-5 13 -10 15h-9q-8 0 -10 -19h-30q6 49 42 49zM2019 2016l29 -31q0 -16 -40 -30h-19l-59 12l-11 -12l-28 25q11 29 43 29h11l42 -11h2q10 0 30 18zM468 1980h142v-60h-94v-75h89v-59h-89v-129l-5 -5h-49
v323zM1155 1980h43l6 -5v-78h30v-52h-30v-188l-6 -5h-49v193h-25v52h25v78zM1621 1980h42l4 -5v-94h3q23 24 54 24h2q58 0 83 -71l2 -39v-143h-52v115q0 80 -42 80h-7q-43 0 -43 -86v-109h-51v323zM2200 1980h49l5 -5v-222q10 -51 45 -51q44 7 44 59v214l5 5h49v-216
q0 -85 -66 -112q-15 -8 -35 -8q-47 0 -82 55q-14 24 -14 57v224zM2435 1980h159v-60h-56v-268h-53v268h-55v55zM2621 1980h71q7 -4 83 -251h2l80 251h73v-328h-54v242h-2l-74 -242h-44q-4 0 -58 182l-19 60h-3v-242h-55v328zM3760 1980h52v-328h-45l-5 5v11l3 2l-3 14
q-29 -40 -78 -40q-67 0 -100 91l-5 39v3q0 94 92 125l23 3q35 0 63 -32h3v107zM2057 1928h36l4 -6v-49h-45v-221h-48v23q-23 -31 -59 -31q-89 14 -89 97v156h51v-104q0 -79 26 -86l18 -5h6q26 0 39 36l3 26v133h53v25zM3476 1928v-55h-31v-221h-47v25h-2q-15 -33 -57 -33
q-68 0 -86 78l-3 29v146h52v-120q0 -50 19 -68l21 -7h9q42 0 42 69v126h27q4 0 4 28l3 3h49zM758 1905q68 0 103 -77q9 -18 12 -54q0 -88 -90 -127l-32 -3q-63 0 -101 73q-12 22 -12 52v10q0 94 101 126h19zM1011 1905h3q74 0 83 -101v-152h-51v119q0 76 -42 76h-5
q-44 0 -44 -76v-119h-52v245h46v-21q30 29 62 29zM1466 1905h7q72 0 105 -89h-60q-16 31 -42 31h-17q-53 -14 -53 -61l-3 -15q12 -69 61 -69h9q22 0 47 27h40l2 3h3l2 -3l2 3l3 -3l2 3l2 -7q-33 -81 -110 -81q-76 0 -110 94l-4 36v3q0 85 77 120q15 8 37 8zM3141 1905h2
q49 0 70 -60v-14h-52q0 16 -16 16h-4q-14 0 -19 -13v-13q0 -9 68 -35q30 -19 30 -59q0 -58 -61 -80l-23 -3q-76 12 -76 83h54q0 -20 27 -25h4q19 0 24 23q0 22 -68 44q-34 27 -34 59q0 66 74 77zM4203 1905q55 0 77 -63q7 -18 7 -65v-125h-52v112q0 83 -40 83h-11
q-33 0 -40 -54v-141h-52v5h-2l2 2v238h47v-21q25 29 64 29zM4432 1905h5q40 0 69 -40v18l-3 3l3 11h47v-208q0 -97 -85 -132l-33 -4h-7q-70 0 -104 80h59q24 -22 45 -23h13q22 0 43 22q15 13 22 52h-3q-32 -40 -73 -40q-57 0 -96 70q-10 18 -14 63q0 88 87 125zM3851 1897
h53v-136q6 -59 40 -59h7q46 0 46 93v102h51v-245h-47l-3 10h3l-3 3v5l3 2v3h-4q0 -23 -57 -31h-3q-59 0 -84 75l-2 85v93zM690 1771q10 -69 63 -69h7q59 14 59 65v15q-13 65 -59 65h-5q-58 0 -65 -76zM3630 1774q13 -72 61 -72h5q58 0 66 75q0 49 -51 70h-22q-37 0 -56 -57z
M4374 1774q8 -72 65 -72h5q59 12 59 72q0 61 -59 73h-14q-56 -16 -56 -62v-11zM3928 1620h52v-57h-52v57zM1054 1402q43 -11 43 -49v-4q0 -17 -32 -60h-28q0 25 31 57v7q0 12 -7 15h-12q-10 -4 -10 -19h-28v6q0 32 33 44zM3349 1339q92 0 138 -99h-60q-37 42 -80 42
q-55 0 -87 -68q-10 -22 -10 -47q0 -78 81 -110l18 -1q36 0 75 39h61q-44 -97 -138 -97q-93 0 -141 112q-10 31 -10 62q0 97 90 152q29 15 63 15zM3664 1339q57 0 103 -47q46 -51 46 -115v-20q0 -89 -91 -146q-33 -13 -63 -13q-89 0 -138 101q-13 33 -13 60v18q0 98 98 151
q29 11 58 11zM2261 1337h2l47 -11h3q11 0 26 11l18 -36q-18 -19 -35 -19h-3l-54 10l-20 -7l-20 36q18 16 36 16zM716 1334h19q118 0 129 -26q25 -26 25 -62q-10 -57 -30 -57v-6q47 -23 47 -66v-18q0 -63 -69 -88l-54 -5h-67v328zM2550 1334h53v-217q6 -61 45 -61q29 0 44 39
l3 30v203l4 6h45l5 -6v-171q0 -118 -40 -133q-24 -26 -64 -26q-55 0 -91 76l-4 54v206zM2805 1334h59q4 0 122 -237h4v237h50l4 -6v-322h-58q-29 48 -125 238h-3v-238h-53v328zM3101 1334h54v-328h-54v328zM3859 1334h8q155 0 174 -40q23 -11 47 -75l4 -36v-11l3 -2
q0 -94 -82 -149q-35 -15 -99 -15h-55v328zM4141 1334h153v-60h-103v-75h101v-57h-101v-74l4 -5h99v-57h-157v322zM3563 1175v-10q0 -76 79 -108l19 -1q68 0 96 86l3 20v15q0 61 -60 94q-12 8 -39 11q-66 0 -96 -83zM770 1274v-67h9q54 0 54 28l3 14q-11 25 -29 25h-37z
M3912 1274v-206l2 -3v-2q104 0 122 76l2 15v29q0 34 -32 68q-25 23 -78 23h-16zM1041 1259h5q38 0 71 -40v32h49v-245h-49v32q-36 -40 -80 -40q-75 0 -101 97l-5 36q0 89 85 125zM1314 1259h3q74 0 83 -102v-151h-51v128q0 67 -42 67h-10q-34 0 -39 -62v-133h-52v245h47v-21
q28 29 61 29zM1543 1259h5q45 0 71 -40v32h47v-219q0 -95 -104 -126h-16q-74 0 -108 82h59q26 -25 44 -25h14q52 0 64 77q-33 -42 -76 -42q-60 0 -101 81l-7 44v16q0 79 85 117zM1912 1259h2q43 0 61 -37h2q32 37 69 37h4q57 0 79 -55q8 -25 8 -45v-153h-52v138q0 44 -23 55
l-12 2h-15q-32 0 -36 -65v-130h-52v136q0 59 -43 59h-8q-32 0 -36 -57v-138h-54v245h50v-21h2q6 24 54 29zM2282 1259q47 0 75 -42v34h47v-245h-47v32q-36 -40 -78 -40q-74 0 -102 92l-6 41q0 90 85 125zM985 1117q0 -48 61 -61h4q45 0 62 46l3 15v22q-12 62 -57 62h-14
q-41 0 -59 -57v-27zM1487 1128q0 -48 43 -68l18 -4h5q47 0 63 57v23q-11 65 -58 65h-12q-50 0 -59 -73zM2225 1131v-14q15 -61 57 -61h14q58 12 58 64v11q0 45 -37 65l-18 5h-10q-64 -8 -64 -70zM770 1150v-82q0 -5 7 -5q77 0 77 45q0 34 -47 42h-37zM2966 753l24 -28
l-51 -55q-18 12 -27 26zM1524 727l85 -54q0 -15 -21 -42l-87 54q18 41 23 42zM2850 693h38l55 -60h-54l-21 26l-23 -26h-54q54 60 59 60zM3422 693h40l56 -60h-54l-24 26h-1q0 -5 -19 -26h-54zM622 685h52q8 -4 47 -137l34 -110q9 8 34 100l48 147h54v-2l-112 -326h-44z
M1159 685h51v-54h-51v54zM1354 685h46l6 -5v-323h-52v328zM2317 685h45l4 -5v-78h31v-52h-31v-193h-53v193h-26v52h26v78zM2425 685h52v-98h2q23 23 54 23h3q57 0 81 -71l3 -38v-144h-52v115q0 81 -39 81h-10q-42 0 -42 -87v-109h-52v328zM2664 685h52v-54h-52v54zM3028 685
h44l6 -5v-78h29v-52h-29v-193h-54v193h-27v52h27v78zM3234 685h52v-328h-52v328zM3957 685h52v-328h-52v328zM4316 685h51v-54h-51v54zM1555 610h5q83 0 110 -102l3 -23v-11q0 -83 -85 -120l-35 -5q-76 0 -111 97l-4 32q0 97 93 130zM1811 610h4q53 0 78 -60q7 -25 7 -81
v-112h-54v146q-7 50 -37 50h-10q-38 0 -42 -57v-139h-54v245h49v-21q26 29 59 29zM2046 610h4q45 0 63 -39h3v31h49v-206q0 -102 -89 -135l-28 -3h-5q-73 0 -106 81h52l37 -20l15 -3h14q50 0 61 72q-33 -39 -73 -39q-62 0 -98 76q-11 23 -12 60q0 85 86 123zM2866 610h2
q82 0 111 -104l2 -25l-2 -27h-172q15 -45 45 -45l14 -3q29 0 49 22h57v-3q-35 -76 -108 -76q-77 0 -111 97l-1 28v8q0 49 32 89q34 39 82 39zM3429 610h5q41 0 70 -39h2v31h47v-245h-47v31h-2q-35 -39 -77 -39q-71 0 -101 89l-5 36v14q0 86 84 120zM3711 610h7
q88 0 107 -128l-2 -1v-15q0 -65 -66 -106q-21 -11 -46 -11q-34 0 -64 32v-99l-5 -5h-49v325h49v-28q31 36 69 36zM4151 610q44 0 75 -39v31h49v-245h-49v31q-35 -39 -77 -39q-92 0 -108 132q0 84 73 121q15 8 37 8zM922 602h50v-136q3 -60 42 -60h5q44 0 44 87v109h52v-245
h-47v24h-5q0 -23 -56 -32h-3q-55 0 -82 68q-4 35 -4 99v81zM1159 602h51v-245h-51v245zM2664 602h52v-245h-52v245zM4316 602h51v-245h-51v245zM1492 488v-16q13 -66 59 -66h4q59 0 66 76q-13 71 -59 71h-11q-59 -16 -59 -65zM1987 472q15 -66 59 -66h11q48 0 59 75v1
q-13 71 -59 71h-14q-39 0 -56 -57v-24zM2805 506h122v2q-16 45 -59 45h-7q-35 0 -56 -47zM3373 474q13 -68 61 -68h5q52 0 65 63v12q-10 72 -57 72h-16q-56 -14 -56 -63zM3642 478q12 -72 61 -72h3q50 0 65 60v22q0 43 -49 65h-22q-47 0 -58 -72v-3zM4095 472q10 -66 66 -66
q43 0 61 48l2 15v16q0 54 -52 68h-18q-42 0 -59 -60v-21zM3416 321h51v-52h-51v52zM4137 321h51v-52h-51v52zM2733 133h4q35 0 43 -50v-2q0 -16 -24 -41l-10 -17h-28q0 25 28 56l3 2v2q-3 19 -9 19h-10q-8 0 -9 -19h-30q6 50 42 50zM1546 116l52 -60l-26 -19l-52 52zM352 79
h4q75 -48 85 -60l-20 -37q-88 49 -88 58zM3490 79l86 -58l-18 -39q-10 0 -91 55q15 36 23 42zM4578 76l19 -42l-91 -52l-20 39l92 58v-3zM1204 53h51v-19l5 -5h14v-36h-14l-5 -5v-279h-46v31q-34 -40 -81 -40q-72 0 -102 105l-3 26q0 102 101 131h14q33 0 66 -33v59l-6 5
h-43v36h49v24zM1480 45h40l56 -61h-53l-23 27l-23 -27h-53zM2641 45h33q12 0 63 -61h-54l-23 27q-19 -21 -19 -27h-58v4zM49 37h160v-60h-56v-268h-50l-4 5v245l2 3v2l-2 2l2 3l-2 2l2 3l-2 3h-54v54zM699 37h47v-73l2 -2l-2 -3v-3l2 -2l-2 -3v-3l2 -2v-2l-2 -3l2 -3h3
q17 24 51 24h3q53 0 77 -58q7 -17 7 -42v-153h-52v127q0 68 -40 68h-8q-43 0 -43 -86v-109h-52v322zM1297 37h47l5 -6v-49h-52v55zM1987 37h52v-198l70 115h62l-78 -118l90 -125v-2h-70q-10 22 -74 115v-115h-52v328zM2271 37v-99q24 24 53 24q57 0 80 -56q10 -19 10 -77
v-120h-54v133q0 62 -41 62h-11q-31 0 -37 -55v-140h-53v314l-1 3v3l1 2l-1 3l1 3h53zM2458 37h51v-55h-51v55zM3148 37h51v-108q27 33 68 33h3q75 0 105 -94l5 -37q0 -75 -64 -120q-30 -11 -49 -11q-41 0 -72 40v-31h-47v328zM4275 37h52v-99h2q23 24 54 24h3q60 0 82 -74
l2 -41v-138h-52v111q0 82 -32 82l-10 2h-12q-37 0 -37 -80v-115h-52v328zM329 -38h3v-58h-5q-42 0 -42 -57v-138h-53v245h47v-21q18 29 50 29zM564 -38q71 0 86 -87v-166h-51v136q-6 59 -41 59h-6q-45 0 -45 -84v-111h-52v245h50v-21q25 29 59 29zM1504 -38q72 0 105 -94
l5 -39q-2 -24 -7 -24h-169q17 -47 62 -47q24 0 48 21h57q-33 -79 -108 -79q-82 0 -113 105v37q0 81 89 117zM2657 -38h5q77 0 107 -97l3 -26v-21l-3 -13h-170q18 -47 53 -47h12q21 0 42 21h59q-34 -79 -105 -79q-84 0 -115 102l-2 29q0 93 91 128zM2915 -38h4q54 0 78 -60
q7 -25 7 -82v-111h-54v138q0 48 -35 57h-11q-38 0 -43 -57v-138h-54v245h50v-21q25 29 58 29zM3508 -38h6q40 0 70 -40h2v32h47v-245h-47v31h-2q-34 -40 -78 -40q-71 0 -101 90l-4 37v12q0 82 77 117q11 6 30 6zM3781 -38h4q62 0 82 -78l3 -84v-91h-54v138q0 48 -38 57h-9
q-38 0 -42 -52v-143h-54v245h49v-21q26 29 59 29zM4133 -38h1q74 0 104 -93l4 -40q0 -88 -84 -126l-25 -3q-41 0 -68 34v-106h-52v326h47v-29q30 37 73 37zM4714 -38h5q34 0 63 -37q27 37 69 37h6q56 0 79 -66l6 -51v-136h-52v122q0 73 -39 73h-7q-35 0 -41 -50v-140l-5 -5
h-48v140q0 42 -31 55h-17q-40 0 -40 -77v-118h-51v245h47v-21q22 29 56 29zM359 -46h49l5 -6v-234l-5 -5h-49v245zM1297 -46h52v-245h-52v245zM1649 -46h52v-136q4 -60 43 -60h4q44 0 44 81v115h52v-245h-47v24h-5q-12 -33 -59 -33q-52 0 -79 63q-5 12 -5 34v157zM2458 -46
h51v-245h-51v245zM4515 -46h51v-245h-51v245zM1077 -169q0 -53 51 -73h12q54 0 66 66v10q0 53 -54 70h-17q-38 0 -58 -57v-16zM1438 -143h122q-18 47 -53 47h-7q-43 0 -62 -44v-3zM2599 -143h122q-21 47 -54 47h-7q-46 0 -61 -47zM3196 -158v-11q10 -73 61 -73h5q64 8 64 71
v5q0 45 -38 65l-18 5h-14q-60 -14 -60 -62zM3452 -173q14 -69 62 -69h11q41 0 59 60v13q-8 73 -56 73h-17q-47 0 -59 -73v-4zM4062 -158v-22q0 -47 59 -62h9q50 0 61 76q-13 70 -58 70h-15q-56 -17 -56 -62z" />
    <glyph glyph-name=".null" horiz-adv-x="0" 
 />
    <glyph glyph-name="nonmarkingreturn" horiz-adv-x="571" 
 />
    <glyph glyph-name="space" unicode=" " horiz-adv-x="602" 
 />
    <glyph glyph-name="exclam" unicode="!" horiz-adv-x="602" 
d="M385 209v-209h-201v209h201zM336 352h-103l-49 635v483h201v-483z" />
    <glyph glyph-name="quotedbl" unicode="&#x22;" horiz-adv-x="786" 
d="M143 950v520h152v-520h-152zM434 950v520h151v-520h-151z" />
    <glyph glyph-name="numbersign" unicode="#" 
d="M794 430l-57 -430h-135l57 430h-254l-61 -430h-135l61 430h-213l20 131h209l41 291h-213l21 127h209l61 430h135l-57 -430h254l57 430h140l-62 -430h213l-20 -127h-209l-41 -291h209l-17 -131h-213zM716 852h-253l-41 -291h258z" />
    <glyph glyph-name="dollar" unicode="$" 
d="M520 840v467q-115 0 -180.5 -68t-65.5 -170q0 -98 76 -160q65 -51 170 -69zM614 631v-520q131 0 205 79q65 70 65 179q0 84 -45 145t-115 84zM1032 1069h-176q-11 96 -54 148q-57 67 -188 90v-488q194 -57 266 -92q184 -92 184 -326q0 -233 -161 -352q-123 -90 -289 -90
v-197h-94v197q-207 0 -322 104q-133 123 -133 375h180q0 -164 59.5 -233.5t215.5 -93.5v544q-256 62 -346 162q-80 90 -80 240q0 166 121.5 283.5t304.5 117.5v131h94v-131q160 -14 258 -76q160 -98 160 -313z" />
    <glyph glyph-name="percent" unicode="%" horiz-adv-x="1912" 
d="M81 1077q0 148 100.5 248t247.5 100q146 0 247 -101t101 -247q0 -145 -101 -246.5t-247 -101.5q-143 0 -245.5 100.5t-102.5 247.5zM224 1077q0 -92 58.5 -148.5t146.5 -56.5q90 0 147.5 59.5t57.5 145.5t-59.5 145.5t-145.5 59.5t-145.5 -59.5t-59.5 -145.5zM1044 336
q0 147 100 247.5t248 100.5q145 0 246.5 -101.5t101.5 -246.5q0 -146 -101.5 -249t-246.5 -103q-144 0 -246 102t-102 250zM1187 336q0 -92 58.5 -148.5t146.5 -56.5q90 0 147.5 59.5t57.5 145.5t-59.5 145.5t-145.5 59.5t-145.5 -59.5t-59.5 -145.5zM1371 1442l-811 -1483
h-110l807 1483h114z" />
    <glyph glyph-name="ampersand" unicode="&#x26;" horiz-adv-x="1454" 
d="M856 291l-332 405q-141 -90 -186 -141q-68 -76 -68 -186q0 -123 103 -191q77 -51 163 -51q201 0 320 164zM586 901q86 57 120 98q64 72 64 156q0 88 -55 129q-41 31 -101 31q-98 0 -143 -62q-29 -41 -29 -98q0 -61 51 -141q37 -58 93 -113zM1061 319l262 -319h-234
l-139 168q-84 -98 -170 -143q-108 -58 -256 -58q-239 0 -354 152q-80 106 -80 237q0 156 66.5 252.5t265.5 210.5q-86 107 -117 164q-39 74 -39 160q0 137 88 227q98 100 260 100q164 0 254 -96q78 -82 78 -207q0 -137 -90 -241q-51 -60 -176 -144l270 -319q25 67 35 108
t23 121h172q0 -74 -31 -169t-88 -204z" />
    <glyph glyph-name="quotesingle" unicode="'" horiz-adv-x="417" 
d="M122 950v520h147v-520h-147z" />
    <glyph glyph-name="parenleft" unicode="(" horiz-adv-x="737" 
d="M487 1503h123q-104 -196 -147 -299q-70 -162 -100.5 -318.5t-30.5 -398.5q0 -159 35.5 -308.5t99.5 -299.5q39 -90 147 -305h-123q-182 272 -256 457q-96 239 -96 506q0 260 90 499q82 215 258 467z" />
    <glyph glyph-name="parenright" unicode=")" horiz-adv-x="737" 
d="M196 -426h-123q100 190 148 301q69 162 100 319.5t31 399.5q0 160 -35 307.5t-101 296.5q-38 92 -147 305h123q123 -184 186 -305q80 -151 123 -312t43 -341q0 -262 -90 -502q-82 -217 -258 -469z" />
    <glyph glyph-name="asterisk" unicode="*" horiz-adv-x="856" 
d="M81 1212l41 111l213 -78v225h123v-225l217 78l41 -111l-221 -69l135 -189l-98 -69l-136 192l-131 -192l-102 69l139 189z" />
    <glyph glyph-name="plus" unicode="+" horiz-adv-x="1269" 
d="M523 594v442h152v-442h442v-152h-442v-442h-152v442h-442v152h442z" />
    <glyph glyph-name="comma" unicode="," horiz-adv-x="602" 
d="M180 0v217h213v-201q0 -178 -90 -260q-49 -45 -123 -59v94q59 6 86 70q20 49 20 139h-106z" />
    <glyph glyph-name="hyphen" unicode="-" horiz-adv-x="737" 
d="M594 659v-184h-504v184h504z" />
    <glyph glyph-name="hyphen" unicode="&#x2010;" horiz-adv-x="737" 
d="M594 659v-184h-504v184h504z" />
    <glyph glyph-name="period" unicode="." horiz-adv-x="602" 
d="M393 217v-217h-213v217h213z" />
    <glyph glyph-name="slash" unicode="/" horiz-adv-x="602" 
d="M607 1511l-504 -1552h-139l508 1552h135z" />
    <glyph glyph-name="zero" unicode="0" 
d="M872 700q0 281 -74 429.5t-229 148.5q-150 0 -224.5 -151.5t-74.5 -426.5q0 -278 73.5 -427.5t225.5 -149.5q151 0 227 150.5t76 426.5zM1064 700q0 -290 -92 -481q-127 -260 -403 -260q-277 0 -402 258q-90 186 -90 483q0 293 90 482q125 260 402 260q276 0 403 -258
q92 -189 92 -484z" />
    <glyph glyph-name="one" unicode="1" 
d="M736 1442v-1442h-192v1024h-336v143q184 0 258 47q86 56 127 228h143z" />
    <glyph glyph-name="two" unicode="2" 
d="M270 926h-180q0 305 190 432q125 84 310 84q192 0 321 -117t129 -313q0 -174 -113 -295q-77 -84 -272 -189l-151 -82q-127 -69 -193 -157q-45 -62 -53 -117h782v-172h-987q0 211 96 356q78 119 244 217l188 111q144 80 191 129q76 80 76 207q0 100 -64 172
q-78 86 -223 86q-137 0 -211 -84q-80 -92 -80 -268z" />
    <glyph glyph-name="three" unicode="3" 
d="M458 664v155l94 -4q117 0 189 51q86 62 86 187q0 84 -51 143q-72 82 -215 82q-166 0 -234 -117q-45 -76 -45 -190h-176q0 192 90 313q119 158 373 158q207 0 326.5 -105.5t119.5 -275.5q0 -125 -61 -207q-49 -66 -123 -88q112 -39 170 -115q67 -88 67 -225
q0 -195 -120 -322q-140 -145 -396 -145q-75 0 -141 16.5t-125 49.5q-113 59 -165 170.5t-52 246.5h188q0 -133 52 -209q75 -110 256 -110q139 0 225 78t86 200q0 160 -121 224q-80 43 -215 43z" />
    <glyph glyph-name="four" unicode="4" 
d="M1073 352h-213v-352h-180v352h-627v176l659 914h148v-934h213v-156zM217 508h463v651z" />
    <glyph glyph-name="five" unicode="5" 
d="M364 1233l-61 -393q53 39 112 61q76 29 166 29q189 0 324 -119q147 -129 147 -344q0 -182 -90 -313q-135 -195 -430 -195q-174 0 -289 78q-153 102 -178 323h188q13 -122 93.5 -181.5t210.5 -59.5q137 0 220 94t83 233q0 152 -90.5 236t-229.5 84q-158 0 -266 -135
l-156 8l111 770h745v-176h-610z" />
    <glyph glyph-name="six" unicode="6" 
d="M1031 1057h-176q-20 102 -76 157q-63 64 -174 64q-184 0 -276 -209q-64 -145 -64 -324l5 -4q40 72 112 117q94 60 227 60q166 0 291 -99q160 -125 160 -356q0 -111 -31.5 -197t-101.5 -161.5t-137 -106.5q-86 -39 -230 -39q-98 0 -188 45q-113 55 -184 168
q-62 96 -86.5 218t-24.5 282q0 299 104 502q140 268 428 268q156 0 273 -82q149 -105 149 -303zM290 442q0 -127 72 -217q82 -102 231 -102q127 0 205 92t78 240q0 116 -62 198q-78 105 -229 105q-146 0 -220.5 -88t-74.5 -228z" />
    <glyph glyph-name="seven" unicode="7" 
d="M77 1233v176h995v-156q-92 -98 -192 -247q-137 -205 -232 -428q-120 -285 -170 -578h-196q37 293 207 645q163 336 379 588h-791z" />
    <glyph glyph-name="eight" unicode="8" 
d="M1007 1069q0 -133 -68 -215q-41 -51 -117 -88q134 -55 193 -164q45 -82 45 -184q0 -193 -115 -318q-131 -141 -372 -141q-86 0 -162 21q-107 28 -187 94q-96 73 -129 186q-18 62 -18 154q0 129 63.5 217t182.5 135q-197 72 -197 278q0 146 90 254q119 144 348 144
q220 0 340 -123q103 -105 103 -250zM569 676q-144 0 -226 -82q-73 -74 -73 -184q0 -111 59 -187q80 -100 248 -100q123 0 194 51q97 70 97 223q0 138 -84 208.5t-215 70.5zM564 831q115 0 186.5 68t71.5 166q0 80 -55 137q-74 76 -215 76q-129 0 -190 -76q-47 -59 -47 -149
q0 -99 73.5 -160.5t175.5 -61.5z" />
    <glyph glyph-name="nine" unicode="9" 
d="M541 483q-203 0 -329 124t-126 339q0 209 117 346q127 150 346 150q301 0 424 -246q80 -160 80 -422q0 -145 -25 -280q-41 -228 -139 -359q-131 -176 -357 -176q-227 0 -342 141q-88 109 -88 248h181q0 -110 67.5 -173.5t177.5 -63.5q148 0 229 128t115 412l-4 4
q-39 -80 -131 -126t-196 -46zM565 643q103 0 174 57q105 84 105 271q0 135 -68 215q-78 92 -223 92q-127 0 -203 -88t-76 -236q0 -182 101 -258q69 -53 190 -53z" />
    <glyph glyph-name="colon" unicode=":" horiz-adv-x="602" 
d="M393 217v-217h-213v217h213zM393 1057v-217h-213v217h213z" />
    <glyph glyph-name="semicolon" unicode=";" horiz-adv-x="602" 
d="M180 0v217h213v-201q0 -178 -90 -260q-49 -45 -123 -59v94q59 6 86 70q20 49 20 139h-106zM393 840h-213v217h213v-217z" />
    <glyph glyph-name="less" unicode="&#x3c;" horiz-adv-x="1269" 
d="M1097 188v-163l-999 421v144l999 426v-164l-798 -332z" />
    <glyph glyph-name="equal" unicode="=" horiz-adv-x="1269" 
d="M1117 799v-148h-1036v148h1036zM1117 385v-147h-1036v147h1036z" />
    <glyph glyph-name="greater" unicode="&#x3e;" horiz-adv-x="1269" 
d="M98 852v164l999 -426v-144l-999 -421v163l799 332z" />
    <glyph glyph-name="question" unicode="?" 
d="M294 1012h-180q0 166 43 250q37 71 121 135q125 94 295 94q182 0 303 -102q131 -111 131 -299q0 -99 -43 -170q-35 -60 -150 -170q-84 -82 -108 -113q-72 -92 -72 -240l4 -20h-180q0 196 68 297q26 41 120.5 138t114.5 122q53 67 53 168q0 84 -49 147q-67 86 -196 86
q-133 0 -204 -80.5t-71 -242.5zM651 209v-209h-197v209h197z" />
    <glyph glyph-name="at" unicode="@" horiz-adv-x="1509" 
d="M1277 836q0 77 -49 132.5t-119 55.5q-131 0 -225 -135q-86 -123 -86 -262q0 -90 47 -145.5t125 -55.5q123 0 219 143q88 131 88 267zM1339 1012l41 127h139q-35 -125 -121 -420q-63 -215 -63 -248q0 -57 45 -57q104 0 197 139t93 303q0 240 -165.5 384t-407.5 144
q-270 0 -446.5 -190t-176.5 -465q0 -272 183.5 -455.5t455.5 -183.5q144 0 276 62.5t220 171.5h139q-102 -170 -272 -267.5t-367 -97.5q-329 0 -555.5 226.5t-226.5 555.5q0 320 225.5 545t544.5 225q293 0 499 -181t206 -458q0 -256 -177 -436q-153 -157 -311 -157
q-57 0 -94 32.5t-37 98.5l-4 -4q-53 -54 -111 -87q-71 -40 -135 -40q-131 0 -217 96t-86 231q0 221 129 387q139 178 346 178q76 0 135.5 -38.5t98.5 -120.5z" />
    <glyph glyph-name="A" unicode="A" horiz-adv-x="1454" 
d="M978 430h-590l-155 -430h-205l553 1470h225l533 -1470h-217zM450 606h455l-218 647z" />
    <glyph glyph-name="B" unicode="B" horiz-adv-x="1454" 
d="M352 1303v-455h356q152 0 225 51q82 57 82 186q0 109 -67 160q-76 58 -236 58h-360zM151 0v1470h647q197 0 311 -108q107 -100 107 -260q0 -92 -37 -162q-49 -94 -160 -145q117 -52 168 -101q99 -96 99 -260q0 -186 -127 -305q-138 -129 -373 -129h-635zM352 688v-516
h422q153 0 232 70.5t79 195.5q0 142 -111 203q-84 47 -233 47h-389z" />
    <glyph glyph-name="C" unicode="C" horiz-adv-x="1568" 
d="M1380 1028h-192q-35 172 -172 250q-101 57 -238 57q-211 0 -342 -145q-141 -158 -141 -440q0 -281 106 -435q123 -176 381 -176q133 0 234 72q141 102 188 330h193q-41 -279 -212 -430.5t-431 -151.5q-279 0 -457 180q-207 211 -207 606q0 342 185.5 554t502.5 212
q266 0 432 -149q146 -131 170 -334z" />
    <glyph glyph-name="D" unicode="D" horiz-adv-x="1568" 
d="M167 0v1470h594q285 0 451.5 -195.5t166.5 -516.5q0 -301 -131 -502q-166 -256 -495 -256h-586zM364 1303v-1131h385q196 0 311 148.5t115 424.5q0 273 -116 415.5t-323 142.5h-372z" />
    <glyph glyph-name="E" unicode="E" horiz-adv-x="1454" 
d="M1261 176v-176h-1085v1470h1073v-176h-872v-450h803v-176h-803v-492h884z" />
    <glyph glyph-name="F" unicode="F" horiz-adv-x="1314" 
d="M377 668v-668h-201v1470h1020v-176h-819v-450h721v-176h-721z" />
    <glyph glyph-name="G" unicode="G" horiz-adv-x="1683" 
d="M798 618v168h643v-786h-126l-50 193q-73 -105 -204.5 -169.5t-278.5 -64.5q-172 0 -293 55q-84 39 -158 113q-147 139 -200 332q-33 119 -33 291q0 299 168 514q192 247 528 247q228 0 400 -118q194 -133 223 -369h-193q-41 174 -182 252q-106 59 -256 59
q-209 0 -342 -153q-141 -164 -141 -445q0 -264 98 -415q123 -191 393 -191q78 0 138 14q90 23 161 80q92 72 131 174q33 88 33 219h-459z" />
    <glyph glyph-name="H" unicode="H" horiz-adv-x="1568" 
d="M1126 864v606h196v-1470h-196v688h-770v-688h-197v1470h197v-606h770z" />
    <glyph glyph-name="I" unicode="I" horiz-adv-x="602" 
d="M385 1470v-1470h-197v1470h197z" />
    <glyph glyph-name="J" unicode="J" horiz-adv-x="1085" 
d="M36 475h184v-102q0 -127 57.5 -184.5t164.5 -57.5q131 0 188 72q49 61 49 182v1085h197v-1073q0 -235 -138 -348q-108 -90 -284 -90q-230 0 -338 133q-80 98 -80 236v147z" />
    <glyph glyph-name="K" unicode="K" horiz-adv-x="1454" 
d="M356 516v-516h-201v1470h201v-712l712 712h275l-615 -593l631 -877h-258l-516 737z" />
    <glyph glyph-name="L" unicode="L" 
d="M356 1470v-1294h745v-176h-946v1470h201z" />
    <glyph glyph-name="M" unicode="M" horiz-adv-x="1798" 
d="M1560 0h-192v1237l-414 -1237h-197l-413 1233v-1233h-193v1470h283l422 -1241l421 1241h283v-1470z" />
    <glyph glyph-name="N" unicode="N" horiz-adv-x="1568" 
d="M1130 1470h192v-1470h-221l-749 1188l-4 -1188h-193v1470h238l733 -1187z" />
    <glyph glyph-name="O" unicode="O" horiz-adv-x="1572" 
d="M1323 737q0 264 -135 428q-142 170 -377 170q-234 0 -373 -168t-139 -430q0 -266 137 -432t375 -166q235 0 373.5 167t138.5 431zM1528 737q0 -297 -152 -508q-192 -270 -565 -270q-371 0 -563 268q-154 215 -154 510q0 293 152 504q194 270 565 270q370 0 563 -268
q154 -213 154 -506z" />
    <glyph glyph-name="P" unicode="P" horiz-adv-x="1454" 
d="M377 1303v-512h393q145 0 217 57q82 65 82 209q0 131 -84 192q-72 54 -207 54h-401zM377 623v-623h-201v1470h664q198 0 316 -115.5t118 -297.5q0 -176 -97 -293q-116 -141 -337 -141h-463z" />
    <glyph glyph-name="Q" unicode="Q" horiz-adv-x="1683" 
d="M859 303l103 123l184 -143q78 75 121 195t43 259q0 264 -135 428q-142 170 -377 170q-234 0 -373 -168t-139 -430q0 -266 137 -432t375 -166q121 0 217 45zM1502 4l-102 -119l-225 176q-148 -102 -377 -102q-371 0 -563 268q-154 215 -154 510q0 293 152 504
q194 270 565 270q370 0 563 -268q154 -213 154 -506q0 -157 -48 -299q-55 -166 -165 -278z" />
    <glyph glyph-name="R" unicode="R" horiz-adv-x="1568" 
d="M381 631v-631h-201v1470h680q209 0 332 -79q151 -99 151 -314q0 -147 -65 -237q-43 -62 -140 -115q89 -39 121 -76q56 -65 56 -203l12 -266q0 -63 13.5 -91t60.5 -56v-33h-242q-18 55 -27.5 178t-9.5 191q0 151 -74 211q-63 51 -188 51h-479zM381 1303v-500h458
q136 0 205 45q94 61 94 209q0 147 -94 207q-61 39 -168 39h-495z" />
    <glyph glyph-name="S" unicode="S" horiz-adv-x="1454" 
d="M1228 1040h-184q0 158 -121 236q-98 63 -243 63q-136 0 -216 -43q-120 -63 -120 -215q0 -84 53 -131q39 -35 119 -53l422 -98q153 -37 235 -125q96 -103 96 -268q0 -238 -192 -355q-152 -92 -381 -92q-182 0 -301 49q-72 29 -146 94q-84 78 -115.5 169t-31.5 204h184
q0 -182 131 -272q105 -72 275 -72q196 0 299 76q86 63 86 174q0 113 -62.5 163t-248.5 95l-304 70q-120 30 -190 86q-121 94 -121 262q0 190 117 313q135 141 387 141q338 0 479 -174q94 -116 94 -297z" />
    <glyph glyph-name="T" unicode="T" horiz-adv-x="1314" 
d="M28 1294v176h1196v-176h-500v-1294h-196v1294h-500z" />
    <glyph glyph-name="U" unicode="U" horiz-adv-x="1478" 
d="M1109 1470h197v-954q0 -242 -143 -391q-158 -166 -447 -166q-280 0 -432 162q-133 143 -133 371v978h197v-925q0 -219 118 -322q97 -84 254 -84q166 0 265 80q124 103 124 322v929z" />
    <glyph glyph-name="V" unicode="V" horiz-adv-x="1454" 
d="M1101 1470h225l-536 -1470h-213l-537 1470h221l422 -1253z" />
    <glyph glyph-name="W" unicode="W" horiz-adv-x="2027" 
d="M626 0h-209l-385 1470h217l275 -1196l331 1196h217l332 -1196l279 1196h217l-385 -1470h-209l-336 1221z" />
    <glyph glyph-name="X" unicode="X" horiz-adv-x="1454" 
d="M810 754l516 -754h-246l-393 606l-409 -606h-238l524 754l-491 716h250l372 -561l373 561h238z" />
    <glyph glyph-name="Y" unicode="Y" horiz-adv-x="1454" 
d="M782 594v-594h-197v594l-557 876h233l422 -704l422 704h234z" />
    <glyph glyph-name="Z" unicode="Z" horiz-adv-x="1314" 
d="M1204 176v-176h-1155v168l901 1126h-835v176h1089v-172l-905 -1122h905z" />
    <glyph glyph-name="bracketleft" unicode="[" horiz-adv-x="602" 
d="M291 1335v-1593h221v-143h-381v1880h381v-144h-221z" />
    <glyph glyph-name="backslash" unicode="\" horiz-adv-x="602" 
d="M500 -41l-504 1552h139l504 -1552h-139z" />
    <glyph glyph-name="bracketright" unicode="]" horiz-adv-x="602" 
d="M278 -258v1593h-221v144h385v-1880h-385v143h221z" />
    <glyph glyph-name="asciicircum" unicode="^" horiz-adv-x="1015" 
d="M992 541h-160l-348 704l-352 -704h-160l438 868h148z" />
    <glyph glyph-name="underscore" unicode="_" 
d="M1139 -258h-1139v102h1139v-102z" />
    <glyph glyph-name="grave" unicode="`" horiz-adv-x="737" 
d="M294 1217l-266 286h221l185 -286h-140z" />
    <glyph glyph-name="a" unicode="a" horiz-adv-x="1175" 
d="M294 745h-168q0 185 123 275q113 82 320 82q131 0 229 -45q168 -76 168 -254v-615q0 -65 61 -65l58 8v-131q-23 -6 -48.5 -13t-50.5 -7q-108 0 -153 51q-35 39 -35 112q-72 -75 -141 -114q-111 -62 -248 -62q-148 0 -242 86t-94 226q0 108 51 186q82 125 277 149l295 37
q43 4 63 25q31 31 31 102q0 176 -250 176q-133 0 -195 -73q-36 -45 -51 -136zM786 373v176q-23 -21 -80.5 -35t-199.5 -32.5t-193.5 -61.5t-51.5 -113q0 -92 46.5 -140t146.5 -48q131 0 231.5 73.5t100.5 180.5z" />
    <glyph glyph-name="b" unicode="b" 
d="M290 0h-172v1470h180v-532q121 164 316 164q206 0 329 -154q117 -145 117 -379q0 -235 -98 -397q-125 -205 -373 -205q-123 0 -203 60q-49 36 -92 108zM872 541q0 159 -41 250q-70 151 -250 151q-174 0 -244 -162q-47 -108 -47 -293q0 -190 104 -286q80 -74 191 -74
q143 0 215 112.5t72 301.5z" />
    <glyph glyph-name="c" unicode="c" horiz-adv-x="1085" 
d="M979 713h-177q-16 108 -79.5 168.5t-174.5 60.5q-151 0 -229 -129q-65 -111 -65 -276q0 -175 53 -275q71 -135 241 -135q91 0 162.5 67.5t91.5 186.5h177q-19 -162 -109 -270q-119 -144 -330 -144q-221 0 -350 150.5t-129 390.5q0 266 123 422q135 172 393 172
q193 0 299 -125q88 -103 103 -264z" />
    <glyph glyph-name="d" unicode="d" 
d="M1023 1470v-1470h-172v147q-55 -98 -145 -143q-72 -37 -162 -37q-248 0 -373 203q-98 160 -98 399q0 234 118 383.5t328 149.5q127 0 216 -66q45 -32 104 -114l4 12v536h180zM257 541q0 -185 75 -299.5t216 -114.5q111 0 189 72q102 94 102 288q0 185 -45 291
q-70 164 -242 164q-182 0 -252 -149q-43 -93 -43 -252z" />
    <glyph glyph-name="e" unicode="e" 
d="M863 336h181q-11 -62 -48 -129q-55 -103 -145 -162q-55 -37 -98 -51q-78 -27 -193 -27q-221 0 -350 150.5t-129 390.5q0 266 123 422q135 172 393 172q225 0 342 -167t117 -456h-782q0 -170 78.5 -261t232.5 -91q119 0 201 74q69 63 77 135zM274 623h598q0 137 -68 221
q-78 98 -231 98q-123 0 -211 -96t-88 -223z" />
    <glyph glyph-name="f" unicode="f" horiz-adv-x="602" 
d="M536 922h-180v-922h-181v922h-147v151h147v184q0 234 279 234h37.5t44.5 -4v-160l-74 4q-106 0 -106 -127v-131h180v-151z" />
    <glyph glyph-name="g" unicode="g" 
d="M269 541q0 -187 73 -300.5t214 -113.5q113 0 191 72q104 96 104 288q0 183 -47 291q-72 164 -244 164q-182 0 -250 -149q-41 -91 -41 -252zM1023 1073v-983q0 -211 -63 -328q-115 -213 -437 -213q-141 0 -237 52q-148 80 -172 268h180q16 -84 78.5 -128t163.5 -44
q196 0 266 135q41 80 41 234v57l-4 -8q-41 -66 -107 -103q-78 -45 -180 -45q-248 0 -373 203q-98 160 -98 399q0 232 120 382.5t326 150.5q129 0 218 -66q51 -39 102 -114l4 151h172z" />
    <glyph glyph-name="h" unicode="h" 
d="M1007 729v-729h-180v700q0 123 -41 177q-49 65 -172 65q-127 0 -205 -76q-94 -92 -94 -280v-586h-180v1470h180v-540q62 76 113 110q90 62 203 62q157 0 252 -70q124 -92 124 -303z" />
    <glyph glyph-name="i" unicode="i" horiz-adv-x="487" 
d="M319 1073v-1073h-180v1073h180zM319 1266h-180v204h180v-204z" />
    <glyph glyph-name="j" unicode="j" horiz-adv-x="487" 
d="M320 1073v-1233q0 -108 -37 -168q-63 -102 -237 -102h-29h-24q-17 4 -25 4v156h37q82 0 108.5 22.5t26.5 108.5v1212h180zM320 1470v-204h-180v204h180z" />
    <glyph glyph-name="k" unicode="k" horiz-adv-x="1085" 
d="M594 672l434 -672h-234l-331 541l-152 -135v-406h-172v1470h172v-852l463 455h229z" />
    <glyph glyph-name="l" unicode="l" horiz-adv-x="487" 
d="M319 1470v-1470h-180v1470h180z" />
    <glyph glyph-name="m" unicode="m" horiz-adv-x="1798" 
d="M135 0v1073h168v-151q57 73 108 110q97 70 220 70q96 0 163.5 -38t122.5 -134q82 90 136 123q79 49 192 49q123 0 209 -66q123 -94 123 -295v-741h-180v692q0 121 -41 180q-50 70 -160 70q-111 0 -180.5 -85t-69.5 -202v-655h-180v741q0 80 -35 133q-45 68 -133 68
q-105 0 -178 -68q-105 -94 -105 -288v-586h-180z" />
    <glyph glyph-name="n" unicode="n" 
d="M1007 729v-729h-180v659q0 148 -47 211q-53 72 -182 72q-105 0 -178 -68q-105 -94 -105 -288v-586h-180v1073h168v-151q57 71 111 110q98 70 217 70q157 0 252 -70q124 -92 124 -303z" />
    <glyph glyph-name="o" unicode="o" horiz-adv-x="1179" 
d="M73 537q0 231 119 387q135 178 377 178q241 0 378 -178q121 -158 121 -387q0 -228 -121 -385q-137 -181 -378 -181q-240 0 -375 179q-121 157 -121 387zM257 537q0 -152 58 -258q82 -152 254 -152q170 0 252 149q59 109 59 261q0 151 -57 258q-82 151 -254 151
q-170 0 -252 -149q-60 -109 -60 -260z" />
    <glyph glyph-name="p" unicode="p" 
d="M290 487q0 -190 104 -286q80 -74 191 -74q143 0 215 112.5t72 301.5q0 159 -41 250q-70 151 -250 151q-174 0 -244 -162q-47 -108 -47 -293zM118 -426v1499h172v-151q57 77 104 112q93 68 220 68q206 0 329 -154q117 -145 117 -379q0 -235 -98 -397q-125 -205 -373 -205
q-102 0 -173 40t-114 108l-4 -541h-180z" />
    <glyph glyph-name="q" unicode="q" 
d="M1011 1073v-1499h-180v541q-41 -66 -107 -103q-78 -45 -180 -45q-248 0 -373 203q-98 160 -98 399q0 234 118 383.5t328 149.5q127 0 216 -66q45 -32 104 -114l4 151h168zM839 487q0 185 -45 291q-70 164 -242 164q-182 0 -252 -149q-43 -93 -43 -252q0 -185 75 -299.5
t216 -114.5q111 0 189 72q102 94 102 288z" />
    <glyph glyph-name="r" unicode="r" horiz-adv-x="737" 
d="M339 623v-623h-180v1073h168v-180q61 100 131 151q78 58 176 58q33 0 45 -4v-189h-65q-123 0 -199 -82t-76 -204z" />
    <glyph glyph-name="s" unicode="s" horiz-adv-x="1085" 
d="M917 766h-176q0 72 -41 115q-64 65 -213 65q-98 0 -155.5 -42t-57.5 -109q0 -62 45 -90q35 -23 152 -54l180 -45q164 -39 231.5 -104.5t67.5 -177.5q0 -164 -118 -260.5t-304 -96.5q-281 0 -391 139q-72 91 -72 238h176q0 -117 80 -170q72 -47 203 -47q106 0 172 39
q74 45 74 129q0 61 -44.5 92t-168.5 64l-209 49q-119 30 -179 88q-67 65 -67 174q0 166 123 258q108 82 282 82q191 0 300.5 -94.5t109.5 -241.5z" />
    <glyph glyph-name="t" unicode="t" horiz-adv-x="602" 
d="M528 922h-172v-697q0 -53 39 -71q22 -11 67 -11h66v-143l-135 -16q-125 0 -177 67q-41 53 -41 166v705h-147v151h147v299h181v-299h172v-151z" />
    <glyph glyph-name="u" unicode="u" 
d="M1003 0h-172v156l-4 4q-57 -97 -137 -145t-203 -48q-139 0 -231 70q-117 88 -117 266v770h180v-713q0 -124 60 -182q51 -51 149 -51q154 0 232 119q63 96 63 237v590h180v-1073z" />
    <glyph glyph-name="v" unicode="v" horiz-adv-x="1085" 
d="M811 1073h196l-405 -1073h-193l-393 1073h209l278 -872z" />
    <glyph glyph-name="w" unicode="w" horiz-adv-x="1568" 
d="M524 0h-185l-311 1073h197l204 -844l213 844h201l209 -844l221 844h180l-311 -1073h-188l-217 831z" />
    <glyph glyph-name="x" unicode="x" horiz-adv-x="1085" 
d="M626 553l377 -553h-229l-267 406l-258 -406h-225l377 553l-361 520h234l246 -377l249 377h222z" />
    <glyph glyph-name="y" unicode="y" horiz-adv-x="1085" 
d="M802 1073h201q-94 -264 -187.5 -522t-197.5 -531q-129 -325 -189.5 -391.5t-232.5 -66.5q-16 0 -27 2q-30 10 -47 14v164q17 -6 46.5 -13.5t60.5 -7.5q67 0 96 39t96 211l-397 1102h205l282 -872z" />
    <glyph glyph-name="z" unicode="z" horiz-adv-x="1085" 
d="M942 926l-639 -774h659v-152h-897v143l643 779h-594v151h828v-147z" />
    <glyph glyph-name="braceleft" unicode="{" horiz-adv-x="737" 
d="M86 479v123q70 0 119 75t49 187v353q0 120 61.5 191t147.5 71h135v-131h-90q-49 0 -71.5 -45.5t-22.5 -122.5v-349q0 -131 -74 -215q-53 -61 -107 -71q39 -15 74 -45q107 -90 107 -254v-348q0 -74 22.5 -121t71.5 -47h90v-131h-135q-84 0 -144 67q-65 74 -65 195v352
q0 117 -48 191.5t-120 74.5z" />
    <glyph glyph-name="bar" unicode="|" horiz-adv-x="577" 
d="M192 -41v1552h152v-1552h-152z" />
    <glyph glyph-name="braceright" unicode="}" horiz-adv-x="737" 
d="M598 602v-123q-72 0 -118 -74.5t-46 -191.5v-352q0 -121 -62.5 -191.5t-146.5 -70.5h-139v131h90q51 0 72.5 46t21.5 122v348q0 139 74 223q47 53 107 72q-35 10 -74 43q-107 90 -107 247v349q0 77 -18 116q-25 52 -76 52h-90v131h139q84 0 146.5 -71t62.5 -191v-353
q0 -116 45 -189t119 -73z" />
    <glyph glyph-name="asciitilde" unicode="~" horiz-adv-x="1269" 
d="M998 668l74 -115q-51 -80 -115.5 -128t-142.5 -48q-39 0 -83 13t-126 56q-61 35 -104 50q-60 20 -129 20q-62 0 -107 -45q-37 -37 -65 -102l-74 114q41 80 92 121q68 55 162 55q49 0 106.5 -17t122.5 -48q78 -33 131.5 -53.5t77.5 -20.5q53 0 103 47q22 23 77 101z" />
    <glyph glyph-name="dieresis" unicode="&#xa8;" horiz-adv-x="1024" 
 />
    <glyph glyph-name="copyright" unicode="&#xa9;" horiz-adv-x="1642" 
d="M806 -41q-323 0 -554.5 223.5t-231.5 554.5q0 330 230.5 552t555.5 222q322 0 552.5 -222t230.5 -552q0 -331 -229.5 -554.5t-553.5 -223.5zM176 737q0 -278 182 -462.5t448 -184.5q267 0 447 184.5t180 462.5q0 275 -180 459t-447 184q-266 0 -448 -184t-182 -459z
M1077 594h139q-31 -152 -135.5 -242t-245.5 -90q-207 0 -333 136.5t-126 342.5q0 205 123 338t328 133q154 0 259 -81.5t126 -237.5h-135q-19 84 -85.5 134t-164.5 50q-141 0 -218 -92t-77 -244q0 -145 82 -244.5t221 -99.5q92 0 158.5 55.5t83.5 141.5z" />
    <glyph glyph-name="registered" unicode="&#xae;" horiz-adv-x="1642" 
d="M806 -41q-323 0 -554.5 223.5t-231.5 554.5q0 330 230.5 552t555.5 222q322 0 552.5 -222t230.5 -552q0 -331 -229.5 -554.5t-553.5 -223.5zM176 737q0 -278 182 -462.5t448 -184.5q267 0 447 184.5t180 462.5q0 275 -180 459t-447 184q-266 0 -448 -184t-182 -459z
M643 676v-385h-136v893h340q162 0 239 -60.5t77 -193.5q0 -113 -62.5 -173.5t-167.5 -72.5l254 -393h-151l-238 385h-155zM643 791h163q138 0 178 35.5t40 111.5t-54.5 103.5t-142.5 27.5h-184v-278z" />
    <glyph glyph-name="acute" unicode="&#xb4;" horiz-adv-x="1024" 
 />
    <glyph glyph-name="paragraph" unicode="&#xb6;" horiz-adv-x="1024" 
d="M929 1435v-70h-127v-1365h-82v1365h-166v-1365h-84v738q-174 8 -275.5 102.5t-101.5 245.5q0 157 107.5 253t285.5 96h443z" />
    <glyph glyph-name="onequarter" unicode="&#xbc;" horiz-adv-x="1798" 
d="M860 193v122l421 549h132v-553h135v-118h-135v-193h-132v193h-421zM1281 311v385l-294 -385h294zM1339 1442l-905 -1483h-119l905 1483h119zM372 1188h-221v90q123 0 168 27q55 32 82 137h110v-864h-139v610z" />
    <glyph glyph-name="onehalf" unicode="&#xbd;" horiz-adv-x="1798" 
d="M1266 1442l-906 -1483h-118l905 1483h119zM311 1184h-221v94q123 0 168 27q55 32 82 137h115v-864h-144v606zM1085 557h-123q0 182 123 258q80 49 201 49q131 0 215 -69.5t84 -188.5q0 -106 -72 -178q-47 -47 -174 -113l-90 -45q-69 -39 -108 -73q-27 -25 -56 -70h500
v-127h-655q0 127 61 215q51 74 152 129l123 66q98 53 127 79q49 48 49 121v8q0 52 -37 84q-47 43 -135 43q-111 0 -156 -75q-29 -47 -29 -113z" />
    <glyph glyph-name="threequarters" unicode="&#xbe;" horiz-adv-x="1798" 
d="M971 193v122l421 549h132v-553h135v-118h-135v-193h-132v193h-421zM1098 311h294v385zM1458 1442l-905 -1483h-115l905 1483h115zM94 840h139q0 -70 29 -109q43 -59 147 -59q93 0 145 35.5t52 111.5q0 94 -76 127q-47 21 -137 21h-45v102h53q78 0 117 27q51 34 51 112
q0 45 -26 72q-41 43 -138 43q-92 0 -133 -55q-31 -41 -31 -109h-127q0 115 64 189q80 94 248 94q133 0 209.5 -64.5t76.5 -165.5q0 -75 -40 -125q-33 -40 -78 -51q71 -22 113 -72.5t42 -132.5q0 -114 -80 -190q-94 -88 -264 -88q-96 0 -172 41q-71 35 -105 99.5t-34 146.5z
" />
    <glyph glyph-name="Agrave" unicode="&#xc0;" horiz-adv-x="1454" 
d="M978 430h-590l-155 -430h-205l553 1470h225l533 -1470h-217zM450 606h455l-218 647zM614 1614l-267 291h222l180 -291h-135z" />
    <glyph glyph-name="Aacute" unicode="&#xc1;" horiz-adv-x="1454" 
d="M978 430h-590l-155 -430h-205l553 1470h225l533 -1470h-217zM450 606h455l-218 647zM628 1614l181 291h221l-266 -291h-136z" />
    <glyph glyph-name="uni1EA2" unicode="&#x1ea2;" horiz-adv-x="1454" 
d="M978 430h-590l-155 -430h-205l553 1470h225l533 -1470h-217zM450 606h455l-218 647zM743 1550h-117q0 78 16.5 124t75 87t58.5 92q0 50 -27 71.5t-62 21.5q-55 0 -76.5 -31t-21.5 -76l-131 -2q0 111 72 168q61 49 149 49q78 0 137 -31q99 -51 99 -165q0 -54 -25.5 -90.5
t-86 -79.5t-60.5 -138z" />
    <glyph glyph-name="Atilde" unicode="&#xc3;" horiz-adv-x="1454" 
d="M978 430h-590l-155 -430h-205l553 1470h225l533 -1470h-217zM450 606h455l-218 647zM952 1880h102q-10 -96 -64.5 -160.5t-140.5 -64.5q-45 0 -119 28l-53 17q-98 33 -127 33q-39 0 -59.5 -21.5t-34.5 -69.5h-98q14 101 59 154q53 64 154 64q35 0 68.5 -7.5t70.5 -21.5
l45 -21q25 -10 53.5 -17t40.5 -7q53 0 78 31q16 20 25 63z" />
    <glyph glyph-name="uni1EA0" unicode="&#x1ea0;" horiz-adv-x="1454" 
d="M978 430h-590l-155 -430h-205l553 1470h225l533 -1470h-217zM450 606h455l-218 647zM773 -348h-180v205h180v-205z" />
    <glyph glyph-name="Acircumflex" unicode="&#xc2;" horiz-adv-x="1454" 
d="M978 430h-590l-155 -430h-205l553 1470h225l533 -1470h-217zM450 606h455l-218 647zM683 1810l-135 -192h-164l205 291h189l204 -291h-163z" />
    <glyph glyph-name="uni1EA6" unicode="&#x1ea6;" horiz-adv-x="1454" 
d="M978 430h-590l-155 -430h-205l553 1470h225l533 -1470h-217zM450 606h455l-218 647zM934 1868l-266 291h221l181 -291h-136zM683 1810l-135 -192h-164l205 291h189l204 -291h-163z" />
    <glyph glyph-name="uni1EA4" unicode="&#x1ea4;" horiz-adv-x="1454" 
d="M978 430h-590l-155 -430h-205l553 1470h225l533 -1470h-217zM450 606h455l-218 647zM1302 2126l-266 -291h-136l181 291h221zM683 1810l-135 -192h-164l205 291h189l204 -291h-163z" />
    <glyph glyph-name="uni1EA8" unicode="&#x1ea8;" horiz-adv-x="1454" 
d="M978 430h-590l-155 -430h-205l553 1470h225l533 -1470h-217zM450 606h455l-218 647zM683 1810l-135 -192h-164l205 291h189l204 -291h-163zM1014 1831h-117q0 78 16.5 124t75 87t58.5 92q0 50 -27 71.5t-62 21.5q-55 0 -76.5 -31t-21.5 -76l-131 -2q0 111 72 168
q61 49 149 49q78 0 137 -31q99 -51 99 -165q0 -54 -25.5 -90.5t-86 -79.5t-60.5 -138z" />
    <glyph glyph-name="uni1EAA" unicode="&#x1eaa;" horiz-adv-x="1454" 
d="M978 430h-590l-155 -430h-205l553 1470h225l533 -1470h-217zM450 606h455l-218 647zM683 1810l-135 -192h-164l205 291h189l204 -291h-163zM1022 2211h102q-10 -96 -64.5 -160.5t-140.5 -64.5q-45 0 -119 28l-53 17q-98 33 -127 33q-39 0 -59.5 -21.5t-34.5 -69.5h-98
q14 101 59 154q53 64 154 64q35 0 68.5 -7.5t70.5 -21.5l45 -21q25 -10 53.5 -17t40.5 -7q53 0 78 31q16 20 25 63z" />
    <glyph glyph-name="uni1EAC" unicode="&#x1eac;" horiz-adv-x="1454" 
d="M978 430h-590l-155 -430h-205l553 1470h225l533 -1470h-217zM450 606h455l-218 647zM773 -348h-180v205h180v-205zM683 1810l-135 -192h-164l205 291h189l204 -291h-163z" />
    <glyph glyph-name="Abreve" unicode="&#x102;" horiz-adv-x="1454" 
d="M978 430h-590l-155 -430h-205l553 1470h225l533 -1470h-217zM450 606h455l-218 647zM900 1839h99q-19 -145 -107 -215q-80 -63 -221 -63q-135 0 -211 67.5t-92 210.5h98q11 -31 17 -45q14 -31 32 -53q27 -31 68 -48.5t104 -17.5q107 0 160 58q31 32 53 106z" />
    <glyph glyph-name="uni1EB0" unicode="&#x1eb0;" horiz-adv-x="1454" 
d="M978 430h-590l-155 -430h-205l553 1470h225l533 -1470h-217zM450 606h455l-218 647zM633 1868l-266 291h221l181 -291h-136zM900 1839h99q-19 -145 -107 -215q-80 -63 -221 -63q-135 0 -211 67.5t-92 210.5h98q11 -31 17 -45q14 -31 32 -53q27 -31 68 -48.5t104 -17.5
q107 0 160 58q31 32 53 106z" />
    <glyph glyph-name="uni1EAE" unicode="&#x1eae;" horiz-adv-x="1454" 
d="M978 430h-590l-155 -430h-205l553 1470h225l533 -1470h-217zM450 606h455l-218 647zM1011 2126l-266 -291h-136l181 291h221zM900 1839h99q-19 -145 -107 -215q-80 -63 -221 -63q-135 0 -211 67.5t-92 210.5h98q11 -31 17 -45q14 -31 32 -53q27 -31 68 -48.5t104 -17.5
q107 0 160 58q31 32 53 106z" />
    <glyph glyph-name="uni1EB2" unicode="&#x1eb2;" horiz-adv-x="1454" 
d="M978 430h-590l-155 -430h-205l553 1470h225l533 -1470h-217zM450 606h455l-218 647zM733 1811h-117q0 78 16.5 124t75 87t58.5 92q0 50 -27 71.5t-62 21.5q-55 0 -76.5 -31t-21.5 -76l-131 -2q0 111 72 168q61 49 149 49q78 0 137 -31q99 -51 99 -165q0 -54 -25.5 -90.5
t-86 -79.5t-60.5 -138zM900 1839h99q-19 -145 -107 -215q-80 -63 -221 -63q-135 0 -211 67.5t-92 210.5h98q11 -31 17 -45q14 -31 32 -53q27 -31 68 -48.5t104 -17.5q107 0 160 58q31 32 53 106z" />
    <glyph glyph-name="uni1EB4" unicode="&#x1eb4;" horiz-adv-x="1454" 
d="M978 430h-590l-155 -430h-205l553 1470h225l533 -1470h-217zM450 606h455l-218 647zM1042 2141h102q-10 -96 -64.5 -160.5t-140.5 -64.5q-45 0 -119 28l-53 17q-98 33 -127 33q-39 0 -59.5 -21.5t-34.5 -69.5h-98q14 101 59 154q53 64 154 64q35 0 68.5 -7.5t70.5 -21.5
l45 -21q25 -10 53.5 -17t40.5 -7q53 0 78 31q16 20 25 63zM900 1839h99q-19 -145 -107 -215q-80 -63 -221 -63q-135 0 -211 67.5t-92 210.5h98q11 -31 17 -45q14 -31 32 -53q27 -31 68 -48.5t104 -17.5q107 0 160 58q31 32 53 106z" />
    <glyph glyph-name="uni1EB6" unicode="&#x1eb6;" horiz-adv-x="1454" 
d="M978 430h-590l-155 -430h-205l553 1470h225l533 -1470h-217zM450 606h455l-218 647zM773 -348h-180v205h180v-205zM900 1839h99q-19 -145 -107 -215q-80 -63 -221 -63q-135 0 -211 67.5t-92 210.5h98q11 -31 17 -45q14 -31 32 -53q27 -31 68 -48.5t104 -17.5
q107 0 160 58q31 32 53 106z" />
    <glyph glyph-name="Egrave" unicode="&#xc8;" horiz-adv-x="1454" 
d="M1261 176v-176h-1085v1470h1073v-176h-872v-450h803v-176h-803v-492h884zM695 1614l-266 291h221l180 -291h-135z" />
    <glyph glyph-name="Eacute" unicode="&#xc9;" horiz-adv-x="1454" 
d="M1261 176v-176h-1085v1470h1073v-176h-872v-450h803v-176h-803v-492h884zM619 1614l180 291h221l-266 -291h-135z" />
    <glyph glyph-name="uni1EBA" unicode="&#x1eba;" horiz-adv-x="1454" 
d="M1261 176v-176h-1085v1470h1073v-176h-872v-450h803v-176h-803v-492h884zM743 1550h-116q0 78 16 124t74.5 87t58.5 92q0 50 -26.5 71.5t-61.5 21.5q-55 0 -76.5 -31t-21.5 -76l-131 -2q0 111 71 168q62 49 150 49q78 0 137 -31q98 -51 98 -165q0 -54 -25.5 -90.5
t-86 -79.5t-60.5 -138z" />
    <glyph glyph-name="uni1EBC" unicode="&#x1ebc;" horiz-adv-x="1454" 
d="M1261 176v-176h-1085v1470h1073v-176h-872v-450h803v-176h-803v-492h884zM952 1880h103q-11 -96 -65 -160.5t-140 -64.5q-45 0 -119 28l-53 17q-99 33 -127 33q-39 0 -59.5 -21.5t-34.5 -69.5h-99q15 101 60 154q53 64 153 64q35 0 69 -7.5t71 -21.5l45 -21
q24 -10 53 -17t41 -7q53 0 78 31q16 20 24 63z" />
    <glyph glyph-name="uni1EB8" unicode="&#x1eb8;" horiz-adv-x="1454" 
d="M1261 176v-176h-1085v1470h1073v-176h-872v-450h803v-176h-803v-492h884zM774 -348h-180v205h180v-205z" />
    <glyph glyph-name="Ecircumflex" unicode="&#xca;" horiz-adv-x="1454" 
d="M1261 176v-176h-1085v1470h1073v-176h-872v-450h803v-176h-803v-492h884zM719 1810l-135 -192h-164l205 291h188l205 -291h-164z" />
    <glyph glyph-name="uni1EC0" unicode="&#x1ec0;" horiz-adv-x="1454" 
d="M1261 176v-176h-1085v1470h1073v-176h-872v-450h803v-176h-803v-492h884zM946 1835l-266 291h221l180 -291h-135zM719 1810l-135 -192h-164l205 291h188l205 -291h-164z" />
    <glyph glyph-name="uni1EBE" unicode="&#x1ebe;" horiz-adv-x="1454" 
d="M1261 176v-176h-1085v1470h1073v-176h-872v-450h803v-176h-803v-492h884zM900 1845l180 291h221l-266 -291h-135zM719 1810l-135 -192h-164l205 291h188l205 -291h-164z" />
    <glyph glyph-name="uni1EC2" unicode="&#x1ec2;" horiz-adv-x="1454" 
d="M1261 176v-176h-1085v1470h1073v-176h-872v-450h803v-176h-803v-492h884zM1064 1801h-116q0 78 16 124t74.5 87t58.5 92q0 50 -26.5 71.5t-61.5 21.5q-55 0 -76.5 -31t-21.5 -76l-131 -2q0 111 71 168q62 49 150 49q78 0 137 -31q98 -51 98 -165q0 -54 -25.5 -90.5
t-86 -79.5t-60.5 -138zM719 1810l-135 -192h-164l205 291h188l205 -291h-164z" />
    <glyph glyph-name="uni1EC4" unicode="&#x1ec4;" horiz-adv-x="1454" 
d="M1261 176v-176h-1085v1470h1073v-176h-872v-450h803v-176h-803v-492h884zM1042 2171h103q-11 -96 -65 -160.5t-140 -64.5q-45 0 -119 28l-53 17q-99 33 -127 33q-39 0 -59.5 -21.5t-34.5 -69.5h-99q15 101 60 154q53 64 153 64q35 0 69 -7.5t71 -21.5l45 -21
q24 -10 53 -17t41 -7q53 0 78 31q16 20 24 63zM719 1810l-135 -192h-164l205 291h188l205 -291h-164z" />
    <glyph glyph-name="uni1EC6" unicode="&#x1ec6;" horiz-adv-x="1454" 
d="M1261 176v-176h-1085v1470h1073v-176h-872v-450h803v-176h-803v-492h884zM774 -348h-180v205h180v-205zM719 1810l-135 -192h-164l205 291h188l205 -291h-164z" />
    <glyph glyph-name="Igrave" unicode="&#xcc;" horiz-adv-x="602" 
d="M385 1470v-1470h-197v1470h197zM253 1614l-266 291h221l180 -291h-135z" />
    <glyph glyph-name="Iacute" unicode="&#xcd;" horiz-adv-x="602" 
d="M385 1470v-1470h-197v1470h197zM188 1614l180 291h221l-266 -291h-135z" />
    <glyph glyph-name="uni1EC8" unicode="&#x1ec8;" horiz-adv-x="602" 
d="M385 1470v-1470h-196v1470h196zM342 1550h-117q0 78 16.5 124t74.5 87t58 92q0 50 -26.5 71.5t-61.5 21.5q-55 0 -76.5 -31t-21.5 -76l-131 -2q0 111 72 168q61 49 149 49q78 0 137 -31q99 -51 99 -165q0 -54 -25.5 -90.5t-86 -79.5t-60.5 -138z" />
    <glyph glyph-name="Itilde" unicode="&#x128;" horiz-adv-x="602" 
d="M385 1470v-1470h-197v1470h197zM570 1880h102q-10 -96 -64 -160.5t-140 -64.5q-46 0 -119 28l-54 17q-98 33 -126 33q-39 0 -59.5 -21.5t-35.5 -69.5h-98q14 101 59 154q54 64 154 64q35 0 68.5 -7.5t70.5 -21.5l45 -21q25 -10 53.5 -17t41.5 -7q53 0 77 31q17 20 25 63z
" />
    <glyph glyph-name="uni1ECA" unicode="&#x1eca;" horiz-adv-x="602" 
d="M385 1470v-1470h-197v1470h197zM372 -348h-180v205h180v-205z" />
    <glyph glyph-name="Ograve" unicode="&#xd2;" horiz-adv-x="1572" 
d="M1323 737q0 264 -135 428q-142 170 -377 170q-234 0 -373 -168t-139 -430q0 -266 137 -432t375 -166q235 0 373.5 167t138.5 431zM1528 737q0 -297 -152 -508q-192 -270 -565 -270q-371 0 -563 268q-154 215 -154 510q0 293 152 504q194 270 565 270q370 0 563 -268
q154 -213 154 -506zM785 1614l-266 291h221l180 -291h-135z" />
    <glyph glyph-name="Oacute" unicode="&#xd3;" horiz-adv-x="1572" 
d="M1323 737q0 264 -135 428q-142 170 -377 170q-234 0 -373 -168t-139 -430q0 -266 137 -432t375 -166q235 0 373.5 167t138.5 431zM1528 737q0 -297 -152 -508q-192 -270 -565 -270q-371 0 -563 268q-154 215 -154 510q0 293 152 504q194 270 565 270q370 0 563 -268
q154 -213 154 -506zM660 1614l180 291h221l-266 -291h-135z" />
    <glyph glyph-name="uni1ECE" unicode="&#x1ece;" horiz-adv-x="1572" 
d="M1323 737q0 264 -135 428q-142 170 -377 170q-234 0 -373 -168t-139 -430q0 -266 137 -432t375 -166q235 0 373.5 167t138.5 431zM1528 737q0 -297 -152 -508q-192 -270 -565 -270q-371 0 -563 268q-154 215 -154 510q0 293 152 504q194 270 565 270q370 0 563 -268
q154 -213 154 -506zM867 1580h-117q0 78 16.5 124t75 87t58.5 92q0 50 -26.5 71.5t-61.5 21.5q-55 0 -76.5 -31t-21.5 -76l-132 -2q0 111 72 168q62 49 150 49q77 0 137 -31q98 -51 98 -165q0 -54 -25.5 -90.5t-86 -79.5t-60.5 -138z" />
    <glyph glyph-name="Otilde" unicode="&#xd5;" horiz-adv-x="1572" 
d="M1323 737q0 264 -135 428q-142 170 -377 170q-234 0 -373 -168t-139 -430q0 -266 137 -432t375 -166q235 0 373.5 167t138.5 431zM1528 737q0 -297 -152 -508q-192 -270 -565 -270q-371 0 -563 268q-154 215 -154 510q0 293 152 504q194 270 565 270q370 0 563 -268
q154 -213 154 -506zM1057 1880h102q-10 -96 -64.5 -160.5t-140.5 -64.5q-45 0 -119 28l-53 17q-98 33 -127 33q-39 0 -59.5 -21.5t-34.5 -69.5h-98q14 101 59 154q53 64 154 64q34 0 68 -7.5t71 -21.5l45 -21q25 -10 53.5 -17t40.5 -7q53 0 78 31q16 20 25 63z" />
    <glyph glyph-name="uni1ECC" unicode="&#x1ecc;" horiz-adv-x="1572" 
d="M1323 737q0 264 -135 428q-142 170 -377 170q-234 0 -373 -168t-139 -430q0 -266 137 -432t375 -166q235 0 373.5 167t138.5 431zM1528 737q0 -297 -152 -508q-192 -270 -565 -270q-371 0 -563 268q-154 215 -154 510q0 293 152 504q194 270 565 270q370 0 563 -268
q154 -213 154 -506zM901 -348h-180v205h180v-205z" />
    <glyph glyph-name="Ocircumflex" unicode="&#xd4;" horiz-adv-x="1572" 
d="M1323 737q0 264 -135 428q-142 170 -377 170q-234 0 -373 -168t-139 -430q0 -266 137 -432t375 -166q235 0 373.5 167t138.5 431zM1528 737q0 -297 -152 -508q-192 -270 -565 -270q-371 0 -563 268q-154 215 -154 510q0 293 152 504q194 270 565 270q370 0 563 -268
q154 -213 154 -506zM811 1810l-135 -192h-164l205 291h188l205 -291h-164z" />
    <glyph glyph-name="uni1ED2" unicode="&#x1ed2;" horiz-adv-x="1572" 
d="M1323 737q0 264 -135 428q-142 170 -377 170q-234 0 -373 -168t-139 -430q0 -266 137 -432t375 -166q235 0 373.5 167t138.5 431zM1528 737q0 -297 -152 -508q-192 -270 -565 -270q-371 0 -563 268q-154 215 -154 510q0 293 152 504q194 270 565 270q370 0 563 -268
q154 -213 154 -506zM1036 1815l-266 291h221l180 -291h-135zM811 1810l-135 -192h-164l205 291h188l205 -291h-164z" />
    <glyph glyph-name="uni1ED0" unicode="&#x1ed0;" horiz-adv-x="1572" 
d="M1323 737q0 264 -135 428q-142 170 -377 170q-234 0 -373 -168t-139 -430q0 -266 137 -432t375 -166q235 0 373.5 167t138.5 431zM1528 737q0 -297 -152 -508q-192 -270 -565 -270q-371 0 -563 268q-154 215 -154 510q0 293 152 504q194 270 565 270q370 0 563 -268
q154 -213 154 -506zM991 1835l180 291h221l-266 -291h-135zM811 1810l-135 -192h-164l205 291h188l205 -291h-164z" />
    <glyph glyph-name="uni1ED4" unicode="&#x1ed4;" horiz-adv-x="1572" 
d="M1323 737q0 264 -135 428q-142 170 -377 170q-234 0 -373 -168t-139 -430q0 -266 137 -432t375 -166q235 0 373.5 167t138.5 431zM1528 737q0 -297 -152 -508q-192 -270 -565 -270q-371 0 -563 268q-154 215 -154 510q0 293 152 504q194 270 565 270q370 0 563 -268
q154 -213 154 -506zM1128 1811h-117q0 78 16.5 124t75 87t58.5 92q0 50 -26.5 71.5t-61.5 21.5q-55 0 -76.5 -31t-21.5 -76l-132 -2q0 111 72 168q62 49 150 49q77 0 137 -31q98 -51 98 -165q0 -54 -25.5 -90.5t-86 -79.5t-60.5 -138zM811 1810l-135 -192h-164l205 291h188
l205 -291h-164z" />
    <glyph glyph-name="uni1ED6" unicode="&#x1ed6;" horiz-adv-x="1572" 
d="M1323 737q0 264 -135 428q-142 170 -377 170q-234 0 -373 -168t-139 -430q0 -266 137 -432t375 -166q235 0 373.5 167t138.5 431zM1528 737q0 -297 -152 -508q-192 -270 -565 -270q-371 0 -563 268q-154 215 -154 510q0 293 152 504q194 270 565 270q370 0 563 -268
q154 -213 154 -506zM1137 2151h102q-10 -96 -64.5 -160.5t-140.5 -64.5q-45 0 -119 28l-53 17q-98 33 -127 33q-39 0 -59.5 -21.5t-34.5 -69.5h-98q14 101 59 154q53 64 154 64q34 0 68 -7.5t71 -21.5l45 -21q25 -10 53.5 -17t40.5 -7q53 0 78 31q16 20 25 63zM811 1810
l-135 -192h-164l205 291h188l205 -291h-164z" />
    <glyph glyph-name="uni1ED8" unicode="&#x1ed8;" horiz-adv-x="1572" 
d="M1323 737q0 264 -135 428q-142 170 -377 170q-234 0 -373 -168t-139 -430q0 -266 137 -432t375 -166q235 0 373.5 167t138.5 431zM1528 737q0 -297 -152 -508q-192 -270 -565 -270q-371 0 -563 268q-154 215 -154 510q0 293 152 504q194 270 565 270q370 0 563 -268
q154 -213 154 -506zM901 -348h-180v205h180v-205zM811 1810l-135 -192h-164l205 291h188l205 -291h-164z" />
    <glyph glyph-name="Ugrave" unicode="&#xd9;" horiz-adv-x="1478" 
d="M1109 1470h197v-954q0 -242 -143 -391q-158 -166 -447 -166q-280 0 -432 162q-133 143 -133 371v978h197v-925q0 -219 118 -322q97 -84 254 -84q166 0 265 80q124 103 124 322v929zM705 1614l-266 291h221l180 -291h-135z" />
    <glyph glyph-name="Uacute" unicode="&#xda;" horiz-adv-x="1478" 
d="M1109 1470h197v-954q0 -242 -143 -391q-158 -166 -447 -166q-280 0 -432 162q-133 143 -133 371v978h197v-925q0 -219 118 -322q97 -84 254 -84q166 0 265 80q124 103 124 322v929zM640 1614l180 291h221l-266 -291h-135z" />
    <glyph glyph-name="uni1EE6" unicode="&#x1ee6;" horiz-adv-x="1478" 
d="M1109 1470h197v-954q0 -242 -143 -391q-158 -166 -447 -166q-280 0 -432 162q-133 143 -133 371v978h197v-925q0 -219 118 -322q97 -84 254 -84q166 0 265 80q124 103 124 322v929zM797 1580h-117q0 78 16.5 124t75 87t58.5 92q0 50 -27 71.5t-62 21.5q-55 0 -76.5 -31
t-21.5 -76l-131 -2q0 111 72 168q61 49 149 49q78 0 138 -31q98 -51 98 -165q0 -54 -25.5 -90.5t-86 -79.5t-60.5 -138z" />
    <glyph glyph-name="Utilde" unicode="&#x168;" horiz-adv-x="1478" 
d="M1109 1470h197v-954q0 -242 -143 -391q-158 -166 -447 -166q-280 0 -432 162q-133 143 -133 371v978h197v-925q0 -219 118 -322q97 -84 254 -84q166 0 265 80q124 103 124 322v929zM986 1880h103q-11 -96 -65 -160.5t-140 -64.5q-45 0 -119 28l-53 17q-99 33 -127 33
q-39 0 -59.5 -21.5t-34.5 -69.5h-99q15 101 60 154q53 64 153 64q35 0 69 -7.5t71 -21.5l45 -21q24 -10 53 -17t41 -7q53 0 78 31q16 20 24 63z" />
    <glyph glyph-name="uni1EE4" unicode="&#x1ee4;" horiz-adv-x="1478" 
d="M1109 1470h197v-954q0 -242 -143 -391q-158 -166 -447 -166q-280 0 -432 162q-133 143 -133 371v978h197v-925q0 -219 118 -322q97 -84 254 -84q166 0 265 80q124 103 124 322v929zM819 -348h-181v205h181v-205z" />
    <glyph glyph-name="Uhorn" unicode="&#x1af;" horiz-adv-x="1478" 
d="M1306 1401q12 4 31.5 15t33 22.5t19.5 29t6 31.5v49h-115v127h197v-180q0 -57 -61 -119q-23 -20 -56 -37q-10 -4 -55 -24v-799q0 -242 -143 -391q-158 -166 -447 -166q-280 0 -432 162q-133 143 -133 371v978h197v-925q0 -219 118 -322q97 -84 254 -84q166 0 265 80
q124 103 124 322v929h197v-69z" />
    <glyph glyph-name="uni1EEA" unicode="&#x1eea;" horiz-adv-x="1478" 
d="M705 1614l-266 291h221l180 -291h-135zM1306 1401q12 4 31.5 15t33 22.5t19.5 29t6 31.5v49h-115v127h197v-180q0 -57 -61 -119q-23 -20 -56 -37q-10 -4 -55 -24v-799q0 -242 -143 -391q-158 -166 -447 -166q-280 0 -432 162q-133 143 -133 371v978h197v-925
q0 -219 118 -322q97 -84 254 -84q166 0 265 80q124 103 124 322v929h197v-69z" />
    <glyph glyph-name="uni1EE8" unicode="&#x1ee8;" horiz-adv-x="1478" 
d="M640 1614l180 291h221l-266 -291h-135zM1306 1401q12 4 31.5 15t33 22.5t19.5 29t6 31.5v49h-115v127h197v-180q0 -57 -61 -119q-23 -20 -56 -37q-10 -4 -55 -24v-799q0 -242 -143 -391q-158 -166 -447 -166q-280 0 -432 162q-133 143 -133 371v978h197v-925
q0 -219 118 -322q97 -84 254 -84q166 0 265 80q124 103 124 322v929h197v-69z" />
    <glyph glyph-name="uni1EEC" unicode="&#x1eec;" horiz-adv-x="1478" 
d="M797 1580h-117q0 78 16.5 124t75 87t58.5 92q0 50 -27 71.5t-62 21.5q-55 0 -76.5 -31t-21.5 -76l-131 -2q0 111 72 168q61 49 149 49q78 0 138 -31q98 -51 98 -165q0 -54 -25.5 -90.5t-86 -79.5t-60.5 -138zM1306 1401q12 4 31.5 15t33 22.5t19.5 29t6 31.5v49h-115v127
h197v-180q0 -57 -61 -119q-23 -20 -56 -37q-10 -4 -55 -24v-799q0 -242 -143 -391q-158 -166 -447 -166q-280 0 -432 162q-133 143 -133 371v978h197v-925q0 -219 118 -322q97 -84 254 -84q166 0 265 80q124 103 124 322v929h197v-69z" />
    <glyph glyph-name="uni1EEE" unicode="&#x1eee;" horiz-adv-x="1478" 
d="M986 1880h103q-11 -96 -65 -160.5t-140 -64.5q-45 0 -119 28l-53 17q-99 33 -127 33q-39 0 -59.5 -21.5t-34.5 -69.5h-99q15 101 60 154q53 64 153 64q35 0 69 -7.5t71 -21.5l45 -21q24 -10 53 -17t41 -7q53 0 78 31q16 20 24 63zM1306 1401q12 4 31.5 15t33 22.5
t19.5 29t6 31.5v49h-115v127h197v-180q0 -57 -61 -119q-23 -20 -56 -37q-10 -4 -55 -24v-799q0 -242 -143 -391q-158 -166 -447 -166q-280 0 -432 162q-133 143 -133 371v978h197v-925q0 -219 118 -322q97 -84 254 -84q166 0 265 80q124 103 124 322v929h197v-69z" />
    <glyph glyph-name="uni1EF0" unicode="&#x1ef0;" horiz-adv-x="1478" 
d="M819 -348h-181v205h181v-205zM1306 1401q12 4 31.5 15t33 22.5t19.5 29t6 31.5v49h-115v127h197v-180q0 -57 -61 -119q-23 -20 -56 -37q-10 -4 -55 -24v-799q0 -242 -143 -391q-158 -166 -447 -166q-280 0 -432 162q-133 143 -133 371v978h197v-925q0 -219 118 -322
q97 -84 254 -84q166 0 265 80q124 103 124 322v929h197v-69z" />
    <glyph glyph-name="Ohorn" unicode="&#x1a0;" horiz-adv-x="1572" 
d="M1233 1376q151 -108 229 -301q66 -160 66 -338q0 -297 -152 -508q-192 -270 -565 -270q-371 0 -563 268q-154 215 -154 510q0 293 152 504q194 270 565 270q102 0 189 -21.5t163 -64.5q12 2 42 25t40 33q27 24 36 53t9 66h-115v127h197v-181q0 -57 -61 -118
q-46 -39 -78 -54zM1323 737q0 264 -135 428q-142 170 -377 170q-234 0 -373 -168t-139 -430q0 -266 137 -432t375 -166q235 0 373.5 167t138.5 431z" />
    <glyph glyph-name="uni1EDC" unicode="&#x1edc;" horiz-adv-x="1572" 
d="M1323 737q0 264 -135 428q-142 170 -377 170q-234 0 -373 -168t-139 -430q0 -266 137 -432t375 -166q235 0 373.5 167t138.5 431zM785 1614l-266 291h221l180 -291h-135zM1233 1376q151 -108 229 -301q66 -160 66 -338q0 -297 -152 -508q-192 -270 -565 -270
q-371 0 -563 268q-154 215 -154 510q0 293 152 504q194 270 565 270q102 0 189 -21.5t163 -64.5q12 2 42 25t40 33q27 24 36 53t9 66h-115v127h197v-181q0 -57 -61 -118q-46 -39 -78 -54z" />
    <glyph glyph-name="uni1EDA" unicode="&#x1eda;" horiz-adv-x="1572" 
d="M1323 737q0 264 -135 428q-142 170 -377 170q-234 0 -373 -168t-139 -430q0 -266 137 -432t375 -166q235 0 373.5 167t138.5 431zM660 1614l180 291h221l-266 -291h-135zM1233 1376q151 -108 229 -301q66 -160 66 -338q0 -297 -152 -508q-192 -270 -565 -270
q-371 0 -563 268q-154 215 -154 510q0 293 152 504q194 270 565 270q102 0 189 -21.5t163 -64.5q12 2 42 25t40 33q27 24 36 53t9 66h-115v127h197v-181q0 -57 -61 -118q-46 -39 -78 -54z" />
    <glyph glyph-name="uni1EDE" unicode="&#x1ede;" horiz-adv-x="1572" 
d="M1323 737q0 264 -135 428q-142 170 -377 170q-234 0 -373 -168t-139 -430q0 -266 137 -432t375 -166q235 0 373.5 167t138.5 431zM867 1580h-117q0 78 16.5 124t75 87t58.5 92q0 50 -26.5 71.5t-61.5 21.5q-55 0 -76.5 -31t-21.5 -76l-132 -2q0 111 72 168q62 49 150 49
q77 0 137 -31q98 -51 98 -165q0 -54 -25.5 -90.5t-86 -79.5t-60.5 -138zM1233 1376q151 -108 229 -301q66 -160 66 -338q0 -297 -152 -508q-192 -270 -565 -270q-371 0 -563 268q-154 215 -154 510q0 293 152 504q194 270 565 270q102 0 189 -21.5t163 -64.5q12 2 42 25
t40 33q27 24 36 53t9 66h-115v127h197v-181q0 -57 -61 -118q-46 -39 -78 -54z" />
    <glyph glyph-name="uni1EE0" unicode="&#x1ee0;" horiz-adv-x="1572" 
d="M1323 737q0 264 -135 428q-142 170 -377 170q-234 0 -373 -168t-139 -430q0 -266 137 -432t375 -166q235 0 373.5 167t138.5 431zM1057 1880h102q-10 -96 -64.5 -160.5t-140.5 -64.5q-45 0 -119 28l-53 17q-98 33 -127 33q-39 0 -59.5 -21.5t-34.5 -69.5h-98
q14 101 59 154q53 64 154 64q34 0 68 -7.5t71 -21.5l45 -21q25 -10 53.5 -17t40.5 -7q53 0 78 31q16 20 25 63zM1233 1376q151 -108 229 -301q66 -160 66 -338q0 -297 -152 -508q-192 -270 -565 -270q-371 0 -563 268q-154 215 -154 510q0 293 152 504q194 270 565 270
q102 0 189 -21.5t163 -64.5q12 2 42 25t40 33q27 24 36 53t9 66h-115v127h197v-181q0 -57 -61 -118q-46 -39 -78 -54z" />
    <glyph glyph-name="uni1EE2" unicode="&#x1ee2;" horiz-adv-x="1572" 
d="M1323 737q0 264 -135 428q-142 170 -377 170q-234 0 -373 -168t-139 -430q0 -266 137 -432t375 -166q235 0 373.5 167t138.5 431zM901 -348h-180v205h180v-205zM1233 1376q151 -108 229 -301q66 -160 66 -338q0 -297 -152 -508q-192 -270 -565 -270q-371 0 -563 268
q-154 215 -154 510q0 293 152 504q194 270 565 270q102 0 189 -21.5t163 -64.5q12 2 42 25t40 33q27 24 36 53t9 66h-115v127h197v-181q0 -57 -61 -118q-46 -39 -78 -54z" />
    <glyph glyph-name="Ygrave" unicode="&#x1ef2;" horiz-adv-x="1454" 
d="M782 594v-594h-197v594l-557 876h233l422 -704l422 704h234zM644 1614l-267 291h222l180 -291h-135z" />
    <glyph glyph-name="Yacute" unicode="&#xdd;" horiz-adv-x="1454" 
d="M782 594v-594h-197v594l-557 876h233l422 -704l422 704h234zM609 1614l181 291h221l-266 -291h-136z" />
    <glyph glyph-name="uni1EF6" unicode="&#x1ef6;" horiz-adv-x="1454" 
d="M782 594v-594h-197v594l-557 876h233l422 -704l422 704h234zM757 1529h-117q0 78 16.5 124t74.5 87t58 92q0 50 -26.5 71.5t-61.5 21.5q-55 0 -76.5 -31t-21.5 -76l-131 -2q0 111 72 168q61 49 149 49q78 0 137 -31q99 -51 99 -165q0 -54 -26 -90.5t-86 -79.5t-60 -138z
" />
    <glyph glyph-name="uni1EF8" unicode="&#x1ef8;" horiz-adv-x="1454" 
d="M782 594v-594h-197v594l-557 876h233l422 -704l422 704h234zM986 1880h102q-10 -96 -64 -160.5t-140 -64.5q-45 0 -119 28l-53 17q-99 33 -127 33q-39 0 -59.5 -21.5t-35.5 -69.5h-98q15 101 60 154q53 64 153 64q35 0 69 -7.5t70 -21.5l45 -21q25 -10 53.5 -17t41.5 -7
q53 0 78 31q16 20 24 63z" />
    <glyph glyph-name="uni1EF4" unicode="&#x1ef4;" horiz-adv-x="1454" 
d="M782 594v-594h-197v594l-557 876h233l422 -704l422 704h234zM782 -344h-181v205h181v-205z" />
    <glyph glyph-name="agrave" unicode="&#xe0;" horiz-adv-x="1175" 
d="M294 745h-168q0 185 123 275q113 82 320 82q131 0 229 -45q168 -76 168 -254v-615q0 -65 61 -65l58 8v-131q-23 -6 -48.5 -13t-50.5 -7q-108 0 -153 51q-35 39 -35 112q-72 -75 -141 -114q-111 -62 -248 -62q-148 0 -242 86t-94 226q0 108 51 186q82 125 277 149l295 37
q43 4 63 25q31 31 31 102q0 176 -250 176q-133 0 -195 -73q-36 -45 -51 -136zM786 373v176q-23 -21 -80.5 -35t-199.5 -32.5t-193.5 -61.5t-51.5 -113q0 -92 46.5 -140t146.5 -48q131 0 231.5 73.5t100.5 180.5zM511 1217l-271 286h225l181 -286h-135z" />
    <glyph glyph-name="aacute" unicode="&#xe1;" horiz-adv-x="1175" 
d="M294 745h-168q0 185 123 275q113 82 320 82q131 0 229 -45q168 -76 168 -254v-615q0 -65 61 -65l58 8v-131q-23 -6 -48.5 -13t-50.5 -7q-108 0 -153 51q-35 39 -35 112q-72 -75 -141 -114q-111 -62 -248 -62q-148 0 -242 86t-94 226q0 108 51 186q82 125 277 149l295 37
q43 4 63 25q31 31 31 102q0 176 -250 176q-133 0 -195 -73q-36 -45 -51 -136zM786 373v176q-23 -21 -80.5 -35t-199.5 -32.5t-193.5 -61.5t-51.5 -113q0 -92 46.5 -140t146.5 -48q131 0 231.5 73.5t100.5 180.5zM420 1217l180 286h226l-271 -286h-135z" />
    <glyph glyph-name="uni1EA3" unicode="&#x1ea3;" horiz-adv-x="1175" 
d="M294 745h-168q0 185 123 275q113 82 320 82q131 0 229 -45q168 -76 168 -254v-615q0 -65 61 -65l58 8v-131q-23 -6 -48.5 -13t-50.5 -7q-108 0 -153 51q-35 39 -35 112q-72 -75 -141 -114q-111 -62 -248 -62q-148 0 -242 86t-94 226q0 108 51 186q82 125 277 149l295 37
q43 4 63 25q31 31 31 102q0 176 -250 176q-133 0 -195 -73q-36 -45 -51 -136zM786 373v176q-23 -21 -80.5 -35t-199.5 -32.5t-193.5 -61.5t-51.5 -113q0 -92 46.5 -140t146.5 -48q131 0 231.5 73.5t100.5 180.5zM591 1178h-121q0 71 15.5 107t75 78t59.5 93q0 49 -26.5 70.5
t-61.5 21.5q-56 0 -77.5 -30.5t-21.5 -75.5l-131 -2q0 110 72 168q61 49 150 49q77 0 137 -31q98 -51 98 -166q0 -53 -25.5 -90t-85.5 -80q-32 -22 -44.5 -43.5t-12.5 -68.5z" />
    <glyph glyph-name="atilde" unicode="&#xe3;" horiz-adv-x="1175" 
d="M294 745h-168q0 185 123 275q113 82 320 82q131 0 229 -45q168 -76 168 -254v-615q0 -65 61 -65l58 8v-131q-23 -6 -48.5 -13t-50.5 -7q-108 0 -153 51q-35 39 -35 112q-72 -75 -141 -114q-111 -62 -248 -62q-148 0 -242 86t-94 226q0 108 51 186q82 125 277 149l295 37
q43 4 63 25q31 31 31 102q0 176 -250 176q-133 0 -195 -73q-36 -45 -51 -136zM786 373v176q-23 -21 -80.5 -35t-199.5 -32.5t-193.5 -61.5t-51.5 -113q0 -92 46.5 -140t146.5 -48q131 0 231.5 73.5t100.5 180.5zM810 1479h103q-13 -95 -68 -158.5t-137 -63.5
q-25 0 -50.5 5.5t-72.5 19.5l-53 21q-27 8 -64 18t-59 10q-39 0 -61.5 -23.5t-36.5 -66.5h-99q13 98 65 159.5t148 61.5q35 0 68 -9t72 -23l45 -17q71 -29 98 -29q53 0 78 33q16 21 24 62z" />
    <glyph glyph-name="uni1EA1" unicode="&#x1ea1;" horiz-adv-x="1175" 
d="M294 745h-168q0 185 123 275q113 82 320 82q131 0 229 -45q168 -76 168 -254v-615q0 -65 61 -65l58 8v-131q-23 -6 -48.5 -13t-50.5 -7q-108 0 -153 51q-35 39 -35 112q-72 -75 -141 -114q-111 -62 -248 -62q-148 0 -242 86t-94 226q0 108 51 186q82 125 277 149l295 37
q43 4 63 25q31 31 31 102q0 176 -250 176q-133 0 -195 -73q-36 -45 -51 -136zM786 373v176q-23 -21 -80.5 -35t-199.5 -32.5t-193.5 -61.5t-51.5 -113q0 -92 46.5 -140t146.5 -48q131 0 231.5 73.5t100.5 180.5zM641 -344h-181v205h181v-205z" />
    <glyph glyph-name="acircumflex" unicode="&#xe2;" horiz-adv-x="1175" 
d="M294 745h-168q0 185 123 275q113 82 320 82q131 0 229 -45q168 -76 168 -254v-615q0 -65 61 -65l58 8v-131q-23 -6 -48.5 -13t-50.5 -7q-108 0 -153 51q-35 39 -35 112q-72 -75 -141 -114q-111 -62 -248 -62q-148 0 -242 86t-94 226q0 108 51 186q82 125 277 149l295 37
q43 4 63 25q31 31 31 102q0 176 -250 176q-133 0 -195 -73q-36 -45 -51 -136zM786 373v176q-23 -21 -80.5 -35t-199.5 -32.5t-193.5 -61.5t-51.5 -113q0 -92 46.5 -140t146.5 -48q131 0 231.5 73.5t100.5 180.5zM552 1384l-135 -188h-160l201 287h193l200 -287h-164z" />
    <glyph glyph-name="uni1EA7" unicode="&#x1ea7;" horiz-adv-x="1175" 
d="M294 745h-168q0 185 123 275q113 82 320 82q131 0 229 -45q168 -76 168 -254v-615q0 -65 61 -65l58 8v-131q-23 -6 -48.5 -13t-50.5 -7q-108 0 -153 51q-35 39 -35 112q-72 -75 -141 -114q-111 -62 -248 -62q-148 0 -242 86t-94 226q0 108 51 186q82 125 277 149l295 37
q43 4 63 25q31 31 31 102q0 176 -250 176q-133 0 -195 -73q-36 -45 -51 -136zM786 373v176q-23 -21 -80.5 -35t-199.5 -32.5t-193.5 -61.5t-51.5 -113q0 -92 46.5 -140t146.5 -48q131 0 231.5 73.5t100.5 180.5zM782 1417l-271 286h225l181 -286h-135zM552 1384l-135 -188
h-160l201 287h193l200 -287h-164z" />
    <glyph glyph-name="uni1EA5" unicode="&#x1ea5;" horiz-adv-x="1175" 
d="M294 745h-168q0 185 123 275q113 82 320 82q131 0 229 -45q168 -76 168 -254v-615q0 -65 61 -65l58 8v-131q-23 -6 -48.5 -13t-50.5 -7q-108 0 -153 51q-35 39 -35 112q-72 -75 -141 -114q-111 -62 -248 -62q-148 0 -242 86t-94 226q0 108 51 186q82 125 277 149l295 37
q43 4 63 25q31 31 31 102q0 176 -250 176q-133 0 -195 -73q-36 -45 -51 -136zM786 373v176q-23 -21 -80.5 -35t-199.5 -32.5t-193.5 -61.5t-51.5 -113q0 -92 46.5 -140t146.5 -48q131 0 231.5 73.5t100.5 180.5zM731 1428l180 286h226l-271 -286h-135zM552 1384l-135 -188
h-160l201 287h193l200 -287h-164z" />
    <glyph glyph-name="uni1EA9" unicode="&#x1ea9;" horiz-adv-x="1175" 
d="M294 745h-168q0 185 123 275q113 82 320 82q131 0 229 -45q168 -76 168 -254v-615q0 -65 61 -65l58 8v-131q-23 -6 -48.5 -13t-50.5 -7q-108 0 -153 51q-35 39 -35 112q-72 -75 -141 -114q-111 -62 -248 -62q-148 0 -242 86t-94 226q0 108 51 186q82 125 277 149l295 37
q43 4 63 25q31 31 31 102q0 176 -250 176q-133 0 -195 -73q-36 -45 -51 -136zM786 373v176q-23 -21 -80.5 -35t-199.5 -32.5t-193.5 -61.5t-51.5 -113q0 -92 46.5 -140t146.5 -48q131 0 231.5 73.5t100.5 180.5zM872 1409h-121q0 71 15.5 107t75 78t59.5 93q0 49 -26.5 70.5
t-61.5 21.5q-56 0 -77.5 -30.5t-21.5 -75.5l-131 -2q0 110 72 168q61 49 150 49q77 0 137 -31q98 -51 98 -166q0 -53 -25.5 -90t-85.5 -80q-32 -22 -44.5 -43.5t-12.5 -68.5zM552 1384l-135 -188h-160l201 287h193l200 -287h-164z" />
    <glyph glyph-name="uni1EAB" unicode="&#x1eab;" horiz-adv-x="1175" 
d="M294 745h-168q0 185 123 275q113 82 320 82q131 0 229 -45q168 -76 168 -254v-615q0 -65 61 -65l58 8v-131q-23 -6 -48.5 -13t-50.5 -7q-108 0 -153 51q-35 39 -35 112q-72 -75 -141 -114q-111 -62 -248 -62q-148 0 -242 86t-94 226q0 108 51 186q82 125 277 149l295 37
q43 4 63 25q31 31 31 102q0 176 -250 176q-133 0 -195 -73q-36 -45 -51 -136zM786 373v176q-23 -21 -80.5 -35t-199.5 -32.5t-193.5 -61.5t-51.5 -113q0 -92 46.5 -140t146.5 -48q131 0 231.5 73.5t100.5 180.5zM890 1730h103q-13 -95 -68 -158.5t-137 -63.5
q-25 0 -50.5 5.5t-72.5 19.5l-53 21q-27 8 -64 18t-59 10q-39 0 -61.5 -23.5t-36.5 -66.5h-99q13 98 65 159.5t148 61.5q35 0 68 -9t72 -23l45 -17q71 -29 98 -29q53 0 78 33q16 21 24 62zM552 1384l-135 -188h-160l201 287h193l200 -287h-164z" />
    <glyph glyph-name="uni1EAD" unicode="&#x1ead;" horiz-adv-x="1175" 
d="M294 745h-168q0 185 123 275q113 82 320 82q131 0 229 -45q168 -76 168 -254v-615q0 -65 61 -65l58 8v-131q-23 -6 -48.5 -13t-50.5 -7q-108 0 -153 51q-35 39 -35 112q-72 -75 -141 -114q-111 -62 -248 -62q-148 0 -242 86t-94 226q0 108 51 186q82 125 277 149l295 37
q43 4 63 25q31 31 31 102q0 176 -250 176q-133 0 -195 -73q-36 -45 -51 -136zM786 373v176q-23 -21 -80.5 -35t-199.5 -32.5t-193.5 -61.5t-51.5 -113q0 -92 46.5 -140t146.5 -48q131 0 231.5 73.5t100.5 180.5zM641 -344h-181v205h181v-205zM552 1384l-135 -188h-160
l201 287h193l200 -287h-164z" />
    <glyph glyph-name="abreve" unicode="&#x103;" horiz-adv-x="1175" 
d="M294 745h-168q0 185 123 275q113 82 320 82q131 0 229 -45q168 -76 168 -254v-615q0 -65 61 -65l58 8v-131q-23 -6 -48.5 -13t-50.5 -7q-108 0 -153 51q-35 39 -35 112q-72 -75 -141 -114q-111 -62 -248 -62q-148 0 -242 86t-94 226q0 108 51 186q82 125 277 149l295 37
q43 4 63 25q31 31 31 102q0 176 -250 176q-133 0 -195 -73q-36 -45 -51 -136zM786 373v176q-23 -21 -80.5 -35t-199.5 -32.5t-193.5 -61.5t-51.5 -113q0 -92 46.5 -140t146.5 -48q131 0 231.5 73.5t100.5 180.5zM760 1475h98q-19 -146 -107 -215q-80 -64 -221 -64
q-135 0 -211 67.5t-92 211.5h98q11 -31 17 -45q14 -31 33 -54q26 -30 67 -47.5t105 -17.5q106 0 159 57q31 33 54 107z" />
    <glyph glyph-name="uni1EB1" unicode="&#x1eb1;" horiz-adv-x="1175" 
d="M294 745h-168q0 185 123 275q113 82 320 82q131 0 229 -45q168 -76 168 -254v-615q0 -65 61 -65l58 8v-131q-23 -6 -48.5 -13t-50.5 -7q-108 0 -153 51q-35 39 -35 112q-72 -75 -141 -114q-111 -62 -248 -62q-148 0 -242 86t-94 226q0 108 51 186q82 125 277 149l295 37
q43 4 63 25q31 31 31 102q0 176 -250 176q-133 0 -195 -73q-36 -45 -51 -136zM786 373v176q-23 -21 -80.5 -35t-199.5 -32.5t-193.5 -61.5t-51.5 -113q0 -92 46.5 -140t146.5 -48q131 0 231.5 73.5t100.5 180.5zM501 1457l-271 286h225l181 -286h-135zM760 1475h98
q-19 -146 -107 -215q-80 -64 -221 -64q-135 0 -211 67.5t-92 211.5h98q11 -31 17 -45q14 -31 33 -54q26 -30 67 -47.5t105 -17.5q106 0 159 57q31 33 54 107z" />
    <glyph glyph-name="uni1EAF" unicode="&#x1eaf;" horiz-adv-x="1175" 
d="M294 745h-168q0 185 123 275q113 82 320 82q131 0 229 -45q168 -76 168 -254v-615q0 -65 61 -65l58 8v-131q-23 -6 -48.5 -13t-50.5 -7q-108 0 -153 51q-35 39 -35 112q-72 -75 -141 -114q-111 -62 -248 -62q-148 0 -242 86t-94 226q0 108 51 186q82 125 277 149l295 37
q43 4 63 25q31 31 31 102q0 176 -250 176q-133 0 -195 -73q-36 -45 -51 -136zM786 373v176q-23 -21 -80.5 -35t-199.5 -32.5t-193.5 -61.5t-51.5 -113q0 -92 46.5 -140t146.5 -48q131 0 231.5 73.5t100.5 180.5zM480 1458l180 286h226l-271 -286h-135zM760 1475h98
q-19 -146 -107 -215q-80 -64 -221 -64q-135 0 -211 67.5t-92 211.5h98q11 -31 17 -45q14 -31 33 -54q26 -30 67 -47.5t105 -17.5q106 0 159 57q31 33 54 107z" />
    <glyph glyph-name="uni1EB3" unicode="&#x1eb3;" horiz-adv-x="1175" 
d="M294 745h-168q0 185 123 275q113 82 320 82q131 0 229 -45q168 -76 168 -254v-615q0 -65 61 -65l58 8v-131q-23 -6 -48.5 -13t-50.5 -7q-108 0 -153 51q-35 39 -35 112q-72 -75 -141 -114q-111 -62 -248 -62q-148 0 -242 86t-94 226q0 108 51 186q82 125 277 149l295 37
q43 4 63 25q31 31 31 102q0 176 -250 176q-133 0 -195 -73q-36 -45 -51 -136zM786 373v176q-23 -21 -80.5 -35t-199.5 -32.5t-193.5 -61.5t-51.5 -113q0 -92 46.5 -140t146.5 -48q131 0 231.5 73.5t100.5 180.5zM611 1469h-121q0 71 15.5 107t75 78t59.5 93q0 49 -26.5 70.5
t-61.5 21.5q-56 0 -77.5 -30.5t-21.5 -75.5l-131 -2q0 110 72 168q61 49 150 49q77 0 137 -31q98 -51 98 -166q0 -53 -25.5 -90t-85.5 -80q-32 -22 -44.5 -43.5t-12.5 -68.5zM760 1475h98q-19 -146 -107 -215q-80 -64 -221 -64q-135 0 -211 67.5t-92 211.5h98q11 -31 17 -45
q14 -31 33 -54q26 -30 67 -47.5t105 -17.5q106 0 159 57q31 33 54 107z" />
    <glyph glyph-name="uni1EB5" unicode="&#x1eb5;" horiz-adv-x="1175" 
d="M294 745h-168q0 185 123 275q113 82 320 82q131 0 229 -45q168 -76 168 -254v-615q0 -65 61 -65l58 8v-131q-23 -6 -48.5 -13t-50.5 -7q-108 0 -153 51q-35 39 -35 112q-72 -75 -141 -114q-111 -62 -248 -62q-148 0 -242 86t-94 226q0 108 51 186q82 125 277 149l295 37
q43 4 63 25q31 31 31 102q0 176 -250 176q-133 0 -195 -73q-36 -45 -51 -136zM786 373v176q-23 -21 -80.5 -35t-199.5 -32.5t-193.5 -61.5t-51.5 -113q0 -92 46.5 -140t146.5 -48q131 0 231.5 73.5t100.5 180.5zM900 1760h103q-13 -95 -68 -158.5t-137 -63.5
q-25 0 -50.5 5.5t-72.5 19.5l-53 21q-27 8 -64 18t-59 10q-39 0 -61.5 -23.5t-36.5 -66.5h-99q13 98 65 159.5t148 61.5q35 0 68 -9t72 -23l45 -17q71 -29 98 -29q53 0 78 33q16 21 24 62zM760 1475h98q-19 -146 -107 -215q-80 -64 -221 -64q-135 0 -211 67.5t-92 211.5h98
q11 -31 17 -45q14 -31 33 -54q26 -30 67 -47.5t105 -17.5q106 0 159 57q31 33 54 107z" />
    <glyph glyph-name="uni1EB7" unicode="&#x1eb7;" horiz-adv-x="1175" 
d="M294 745h-168q0 185 123 275q113 82 320 82q131 0 229 -45q168 -76 168 -254v-615q0 -65 61 -65l58 8v-131q-23 -6 -48.5 -13t-50.5 -7q-108 0 -153 51q-35 39 -35 112q-72 -75 -141 -114q-111 -62 -248 -62q-148 0 -242 86t-94 226q0 108 51 186q82 125 277 149l295 37
q43 4 63 25q31 31 31 102q0 176 -250 176q-133 0 -195 -73q-36 -45 -51 -136zM786 373v176q-23 -21 -80.5 -35t-199.5 -32.5t-193.5 -61.5t-51.5 -113q0 -92 46.5 -140t146.5 -48q131 0 231.5 73.5t100.5 180.5zM641 -344h-181v205h181v-205zM760 1475h98
q-19 -146 -107 -215q-80 -64 -221 -64q-135 0 -211 67.5t-92 211.5h98q11 -31 17 -45q14 -31 33 -54q26 -30 67 -47.5t105 -17.5q106 0 159 57q31 33 54 107z" />
    <glyph glyph-name="egrave" unicode="&#xe8;" 
d="M863 336h181q-11 -62 -48 -129q-55 -103 -145 -162q-55 -37 -98 -51q-78 -27 -193 -27q-221 0 -350 150.5t-129 390.5q0 266 123 422q135 172 393 172q225 0 342 -167t117 -456h-782q0 -170 78.5 -261t232.5 -91q119 0 201 74q69 63 77 135zM274 623h598q0 137 -68 221
q-78 98 -231 98q-123 0 -211 -96t-88 -223zM510 1217l-270 286h225l181 -286h-136z" />
    <glyph glyph-name="eacute" unicode="&#xe9;" 
d="M863 336h181q-11 -62 -48 -129q-55 -103 -145 -162q-55 -37 -98 -51q-78 -27 -193 -27q-221 0 -350 150.5t-129 390.5q0 266 123 422q135 172 393 172q225 0 342 -167t117 -456h-782q0 -170 78.5 -261t232.5 -91q119 0 201 74q69 63 77 135zM274 623h598q0 137 -68 221
q-78 98 -231 98q-123 0 -211 -96t-88 -223zM420 1217l180 286h226l-271 -286h-135z" />
    <glyph glyph-name="uni1EBB" unicode="&#x1ebb;" 
d="M863 336h181q-11 -62 -48 -129q-55 -103 -145 -162q-55 -37 -98 -51q-78 -27 -193 -27q-221 0 -350 150.5t-129 390.5q0 266 123 422q135 172 393 172q225 0 342 -167t117 -456h-782q0 -170 78.5 -261t232.5 -91q119 0 201 74q69 63 77 135zM274 623h598q0 137 -68 221
q-78 98 -231 98q-123 0 -211 -96t-88 -223zM629 1178h-121q0 71 15.5 107t75 78t59.5 93q0 49 -27 70.5t-62 21.5q-55 0 -76.5 -30.5t-21.5 -75.5l-131 -2q0 110 72 168q61 49 149 49q78 0 137 -31q99 -51 99 -166q0 -53 -25.5 -90t-85.5 -80q-33 -22 -45 -43.5t-12 -68.5z
" />
    <glyph glyph-name="uni1EBD" unicode="&#x1ebd;" 
d="M863 336h181q-11 -62 -48 -129q-55 -103 -145 -162q-55 -37 -98 -51q-78 -27 -193 -27q-221 0 -350 150.5t-129 390.5q0 266 123 422q135 172 393 172q225 0 342 -167t117 -456h-782q0 -170 78.5 -261t232.5 -91q119 0 201 74q69 63 77 135zM274 623h598q0 137 -68 221
q-78 98 -231 98q-123 0 -211 -96t-88 -223zM816 1479h103q-13 -95 -68 -158.5t-137 -63.5q-25 0 -50.5 5.5t-72.5 19.5l-53 21q-27 8 -64 18t-59 10q-39 0 -61.5 -23.5t-36.5 -66.5h-99q13 98 65 159.5t148 61.5q35 0 68 -9t71 -23l46 -17q71 -29 98 -29q53 0 78 33
q16 21 24 62z" />
    <glyph glyph-name="uni1EB9" unicode="&#x1eb9;" 
d="M863 336h181q-11 -62 -48 -129q-55 -103 -145 -162q-55 -37 -98 -51q-78 -27 -193 -27q-221 0 -350 150.5t-129 390.5q0 266 123 422q135 172 393 172q225 0 342 -167t117 -456h-782q0 -170 78.5 -261t232.5 -91q119 0 201 74q69 63 77 135zM274 623h598q0 137 -68 221
q-78 98 -231 98q-123 0 -211 -96t-88 -223zM659 -344h-181v205h181v-205z" />
    <glyph glyph-name="ecircumflex" unicode="&#xea;" 
d="M863 336h181q-11 -62 -48 -129q-55 -103 -145 -162q-55 -37 -98 -51q-78 -27 -193 -27q-221 0 -350 150.5t-129 390.5q0 266 123 422q135 172 393 172q225 0 342 -167t117 -456h-782q0 -170 78.5 -261t232.5 -91q119 0 201 74q69 63 77 135zM274 623h598q0 137 -68 221
q-78 98 -231 98q-123 0 -211 -96t-88 -223zM566 1384l-135 -188h-160l201 287h193l200 -287h-163z" />
    <glyph glyph-name="uni1EC1" unicode="&#x1ec1;" 
d="M863 336h181q-11 -62 -48 -129q-55 -103 -145 -162q-55 -37 -98 -51q-78 -27 -193 -27q-221 0 -350 150.5t-129 390.5q0 266 123 422q135 172 393 172q225 0 342 -167t117 -456h-782q0 -170 78.5 -261t232.5 -91q119 0 201 74q69 63 77 135zM274 623h598q0 137 -68 221
q-78 98 -231 98q-123 0 -211 -96t-88 -223zM781 1428l-270 286h225l181 -286h-136zM552 1384l-135 -188h-160l201 287h192l201 -287h-164z" />
    <glyph glyph-name="uni1EBF" unicode="&#x1ebf;" 
d="M863 336h181q-11 -62 -48 -129q-55 -103 -145 -162q-55 -37 -98 -51q-78 -27 -193 -27q-221 0 -350 150.5t-129 390.5q0 266 123 422q135 172 393 172q225 0 342 -167t117 -456h-782q0 -170 78.5 -261t232.5 -91q119 0 201 74q69 63 77 135zM274 623h598q0 137 -68 221
q-78 98 -231 98q-123 0 -211 -96t-88 -223zM741 1418l180 286h226l-271 -286h-135zM552 1384l-135 -188h-160l201 287h192l201 -287h-164z" />
    <glyph glyph-name="uni1EC3" unicode="&#x1ec3;" 
d="M863 336h181q-11 -62 -48 -129q-55 -103 -145 -162q-55 -37 -98 -51q-78 -27 -193 -27q-221 0 -350 150.5t-129 390.5q0 266 123 422q135 172 393 172q225 0 342 -167t117 -456h-782q0 -170 78.5 -261t232.5 -91q119 0 201 74q69 63 77 135zM274 623h598q0 137 -68 221
q-78 98 -231 98q-123 0 -211 -96t-88 -223zM859 1429h-121q0 71 15.5 107t75 78t59.5 93q0 49 -27 70.5t-62 21.5q-55 0 -76.5 -30.5t-21.5 -75.5l-131 -2q0 110 72 168q61 49 149 49q78 0 137 -31q99 -51 99 -166q0 -53 -25.5 -90t-85.5 -80q-33 -22 -45 -43.5t-12 -68.5z
M552 1384l-135 -188h-160l201 287h192l201 -287h-164z" />
    <glyph glyph-name="uni1EC5" unicode="&#x1ec5;" 
d="M863 336h181q-11 -62 -48 -129q-55 -103 -145 -162q-55 -37 -98 -51q-78 -27 -193 -27q-221 0 -350 150.5t-129 390.5q0 266 123 422q135 172 393 172q225 0 342 -167t117 -456h-782q0 -170 78.5 -261t232.5 -91q119 0 201 74q69 63 77 135zM274 623h598q0 137 -68 221
q-78 98 -231 98q-123 0 -211 -96t-88 -223zM876 1740h103q-13 -95 -68 -158.5t-137 -63.5q-25 0 -50.5 5.5t-72.5 19.5l-53 21q-27 8 -64 18t-59 10q-39 0 -61.5 -23.5t-36.5 -66.5h-99q13 98 65 159.5t148 61.5q35 0 68 -9t71 -23l46 -17q71 -29 98 -29q53 0 78 33
q16 21 24 62zM552 1384l-135 -188h-160l201 287h192l201 -287h-164z" />
    <glyph glyph-name="uni1EC7" unicode="&#x1ec7;" 
d="M863 336h181q-11 -62 -48 -129q-55 -103 -145 -162q-55 -37 -98 -51q-78 -27 -193 -27q-221 0 -350 150.5t-129 390.5q0 266 123 422q135 172 393 172q225 0 342 -167t117 -456h-782q0 -170 78.5 -261t232.5 -91q119 0 201 74q69 63 77 135zM274 623h598q0 137 -68 221
q-78 98 -231 98q-123 0 -211 -96t-88 -223zM659 -344h-181v205h181v-205zM552 1384l-135 -188h-160l201 287h192l201 -287h-164z" />
    <glyph glyph-name="igrave" unicode="&#xec;" horiz-adv-x="487" 
d="M320 1073v-1073h-181v1073h181zM200 1217l-270 286h225l181 -286h-136z" />
    <glyph glyph-name="iacute" unicode="&#xed;" horiz-adv-x="487" 
d="M319 1073v-1073h-180v1073h180zM140 1217l180 286h225l-270 -286h-135z" />
    <glyph glyph-name="uni1EC9" unicode="&#x1ec9;" horiz-adv-x="487" 
d="M319 1073v-1073h-180v1073h180zM288 1178h-121q0 71 15.5 107t74.5 78t59 93q0 49 -26.5 70.5t-61.5 21.5q-55 0 -76.5 -30.5t-21.5 -75.5l-131 -2q0 110 72 168q61 49 149 49q78 0 137 -31q99 -51 99 -166q0 -53 -25.5 -90t-85.5 -80q-33 -22 -45 -43.5t-12 -68.5z" />
    <glyph glyph-name="itilde" unicode="&#x129;" horiz-adv-x="487" 
d="M319 1073v-1073h-180v1073h180zM516 1479h102q-12 -95 -67 -158.5t-137 -63.5q-25 0 -50.5 5.5t-72.5 19.5l-54 21q-26 8 -63 18t-59 10q-39 0 -61.5 -23.5t-37.5 -66.5h-98q12 98 64.5 159.5t148.5 61.5q35 0 67.5 -9t71.5 -23l45 -17q72 -29 99 -29q53 0 77 33
q17 21 25 62z" />
    <glyph glyph-name="uni1ECB" unicode="&#x1ecb;" horiz-adv-x="487" 
d="M324 1073v-1073h-181v1073h181zM319 1266h-180v204h180v-204zM324 -344h-181v205h181v-205z" />
    <glyph glyph-name="ograve" unicode="&#xf2;" horiz-adv-x="1179" 
d="M73 537q0 231 119 387q135 178 377 178q241 0 378 -178q121 -158 121 -387q0 -228 -121 -385q-137 -181 -378 -181q-240 0 -375 179q-121 157 -121 387zM257 537q0 -152 58 -258q82 -152 254 -152q170 0 252 149q59 109 59 261q0 151 -57 258q-82 151 -254 151
q-170 0 -252 -149q-60 -109 -60 -260zM521 1217l-270 286h225l181 -286h-136z" />
    <glyph glyph-name="oacute" unicode="&#xf3;" horiz-adv-x="1179" 
d="M73 537q0 231 119 387q135 178 377 178q241 0 378 -178q121 -158 121 -387q0 -228 -121 -385q-137 -181 -378 -181q-240 0 -375 179q-121 157 -121 387zM257 537q0 -152 58 -258q82 -152 254 -152q170 0 252 149q59 109 59 261q0 151 -57 258q-82 151 -254 151
q-170 0 -252 -149q-60 -109 -60 -260zM451 1217l180 286h226l-271 -286h-135z" />
    <glyph glyph-name="uni1ECF" unicode="&#x1ecf;" horiz-adv-x="1179" 
d="M73 537q0 231 119 387q135 178 377 178q241 0 378 -178q121 -158 121 -387q0 -228 -121 -385q-137 -181 -378 -181q-240 0 -375 179q-121 157 -121 387zM257 537q0 -152 58 -258q82 -152 254 -152q170 0 252 149q59 109 59 261q0 151 -57 258q-82 151 -254 151
q-170 0 -252 -149q-60 -109 -60 -260zM629 1178h-121q0 71 15.5 107t75 78t59.5 93q0 49 -27 70.5t-62 21.5q-55 0 -76.5 -30.5t-21.5 -75.5l-131 -2q0 110 72 168q61 49 149 49q78 0 137 -31q99 -51 99 -166q0 -53 -25.5 -90t-85.5 -80q-33 -22 -45 -43.5t-12 -68.5z" />
    <glyph glyph-name="otilde" unicode="&#xf5;" horiz-adv-x="1179" 
d="M73 537q0 231 119 387q135 178 377 178q241 0 378 -178q121 -158 121 -387q0 -228 -121 -385q-137 -181 -378 -181q-240 0 -375 179q-121 157 -121 387zM257 537q0 -152 58 -258q82 -152 254 -152q170 0 252 149q59 109 59 261q0 151 -57 258q-82 151 -254 151
q-170 0 -252 -149q-60 -109 -60 -260zM816 1479h103q-13 -95 -68 -158.5t-137 -63.5q-25 0 -50.5 5.5t-72.5 19.5l-53 21q-27 8 -64 18t-59 10q-39 0 -61.5 -23.5t-36.5 -66.5h-99q13 98 65 159.5t148 61.5q35 0 68 -9t71 -23l46 -17q71 -29 98 -29q53 0 78 33q16 21 24 62z
" />
    <glyph glyph-name="uni1ECD" unicode="&#x1ecd;" horiz-adv-x="1179" 
d="M73 537q0 231 119 387q135 178 377 178q241 0 378 -178q121 -158 121 -387q0 -228 -121 -385q-137 -181 -378 -181q-240 0 -375 179q-121 157 -121 387zM257 537q0 -152 58 -258q82 -152 254 -152q170 0 252 149q59 109 59 261q0 151 -57 258q-82 151 -254 151
q-170 0 -252 -149q-60 -109 -60 -260zM661 -344h-180v205h180v-205z" />
    <glyph glyph-name="ocircumflex" unicode="&#xf4;" horiz-adv-x="1179" 
d="M73 537q0 231 119 387q135 178 377 178q241 0 378 -178q121 -158 121 -387q0 -228 -121 -385q-137 -181 -378 -181q-240 0 -375 179q-121 157 -121 387zM257 537q0 -152 58 -258q82 -152 254 -152q170 0 252 149q59 109 59 261q0 151 -57 258q-82 151 -254 151
q-170 0 -252 -149q-60 -109 -60 -260zM569 1384l-136 -188h-159l200 287h193l201 -287h-164z" />
    <glyph glyph-name="uni1ED3" unicode="&#x1ed3;" horiz-adv-x="1179" 
d="M73 537q0 231 119 387q135 178 377 178q241 0 378 -178q121 -158 121 -387q0 -228 -121 -385q-137 -181 -378 -181q-240 0 -375 179q-121 157 -121 387zM257 537q0 -152 58 -258q82 -152 254 -152q170 0 252 149q59 109 59 261q0 151 -57 258q-82 151 -254 151
q-170 0 -252 -149q-60 -109 -60 -260zM822 1418l-270 286h225l181 -286h-136zM569 1384l-135 -188h-160l201 287h193l200 -287h-163z" />
    <glyph glyph-name="uni1ED1" unicode="&#x1ed1;" horiz-adv-x="1179" 
d="M73 537q0 231 119 387q135 178 377 178q241 0 378 -178q121 -158 121 -387q0 -228 -121 -385q-137 -181 -378 -181q-240 0 -375 179q-121 157 -121 387zM257 537q0 -152 58 -258q82 -152 254 -152q170 0 252 149q59 109 59 261q0 151 -57 258q-82 151 -254 151
q-170 0 -252 -149q-60 -109 -60 -260zM752 1418l180 286h226l-271 -286h-135zM569 1384l-135 -188h-160l201 287h193l200 -287h-163z" />
    <glyph glyph-name="uni1ED5" unicode="&#x1ed5;" horiz-adv-x="1179" 
d="M73 537q0 231 119 387q135 178 377 178q241 0 378 -178q121 -158 121 -387q0 -228 -121 -385q-137 -181 -378 -181q-240 0 -375 179q-121 157 -121 387zM257 537q0 -152 58 -258q82 -152 254 -152q170 0 252 149q59 109 59 261q0 151 -57 258q-82 151 -254 151
q-170 0 -252 -149q-60 -109 -60 -260zM890 1409h-121q0 71 15.5 107t75 78t59.5 93q0 49 -27 70.5t-62 21.5q-55 0 -76.5 -30.5t-21.5 -75.5l-131 -2q0 110 72 168q61 49 149 49q78 0 137 -31q99 -51 99 -166q0 -53 -25.5 -90t-85.5 -80q-33 -22 -45 -43.5t-12 -68.5z
M569 1384l-135 -188h-160l201 287h193l200 -287h-163z" />
    <glyph glyph-name="uni1ED7" unicode="&#x1ed7;" horiz-adv-x="1179" 
d="M73 537q0 231 119 387q135 178 377 178q241 0 378 -178q121 -158 121 -387q0 -228 -121 -385q-137 -181 -378 -181q-240 0 -375 179q-121 157 -121 387zM257 537q0 -152 58 -258q82 -152 254 -152q170 0 252 149q59 109 59 261q0 151 -57 258q-82 151 -254 151
q-170 0 -252 -149q-60 -109 -60 -260zM897 1760h103q-13 -95 -68 -158.5t-137 -63.5q-25 0 -50.5 5.5t-72.5 19.5l-53 21q-27 8 -64 18t-59 10q-39 0 -61.5 -23.5t-36.5 -66.5h-99q13 98 65 159.5t148 61.5q35 0 68 -9t71 -23l46 -17q71 -29 98 -29q53 0 78 33q16 21 24 62z
M569 1384l-135 -188h-160l201 287h193l200 -287h-163z" />
    <glyph glyph-name="uni1ED9" unicode="&#x1ed9;" horiz-adv-x="1179" 
d="M73 537q0 231 119 387q135 178 377 178q241 0 378 -178q121 -158 121 -387q0 -228 -121 -385q-137 -181 -378 -181q-240 0 -375 179q-121 157 -121 387zM257 537q0 -152 58 -258q82 -152 254 -152q170 0 252 149q59 109 59 261q0 151 -57 258q-82 151 -254 151
q-170 0 -252 -149q-60 -109 -60 -260zM661 -344h-180v205h180v-205zM569 1384l-135 -188h-160l201 287h193l200 -287h-163z" />
    <glyph glyph-name="glyph216" unicode="&#xf9;" 
d="M1003 0h-172v156l-4 4q-57 -97 -137 -145t-203 -48q-139 0 -231 70q-117 88 -117 266v770h180v-713q0 -124 60 -182q51 -51 149 -51q154 0 232 119q63 96 63 237v590h180v-1073zM521 1217l-270 286h225l180 -286h-135z" />
    <glyph glyph-name="glyph217" unicode="&#xfa;" 
d="M1003 0h-172v156l-4 4q-57 -97 -137 -145t-203 -48q-139 0 -231 70q-117 88 -117 266v770h180v-713q0 -124 60 -182q51 -51 149 -51q154 0 232 119q63 96 63 237v590h180v-1073zM451 1217l180 286h225l-270 -286h-135z" />
    <glyph glyph-name="uni1EE7" unicode="&#x1ee7;" 
d="M1003 0h-172v156l-4 4q-57 -97 -137 -145t-203 -48q-139 0 -231 70q-117 88 -117 266v770h180v-713q0 -124 60 -182q51 -51 149 -51q154 0 232 119q63 96 63 237v590h180v-1073zM629 1178h-121q0 71 15 107t74.5 78t59.5 93q0 49 -26.5 70.5t-61.5 21.5
q-55 0 -76.5 -30.5t-21.5 -75.5l-131 -2q0 110 71 168q62 49 150 49q78 0 137 -31q99 -51 99 -166q0 -53 -26 -90t-85 -80q-33 -22 -45 -43.5t-12 -68.5z" />
    <glyph glyph-name="utilde" unicode="&#x169;" 
d="M1003 0h-172v156l-4 4q-57 -97 -137 -145t-203 -48q-139 0 -231 70q-117 88 -117 266v770h180v-713q0 -124 60 -182q51 -51 149 -51q154 0 232 119q63 96 63 237v590h180v-1073zM856 1479h102q-12 -95 -67.5 -158.5t-136.5 -63.5q-25 0 -50.5 5.5t-72.5 19.5l-54 21
q-26 8 -63 18t-59 10q-39 0 -61.5 -23.5t-37.5 -66.5h-98q12 98 64.5 159.5t148.5 61.5q35 0 67.5 -9t71.5 -23l45 -17q72 -29 99 -29q53 0 77 33q17 21 25 62z" />
    <glyph glyph-name="uni1EE5" unicode="&#x1ee5;" 
d="M1003 0h-172v156l-4 4q-57 -97 -137 -145t-203 -48q-139 0 -231 70q-117 88 -117 266v770h180v-713q0 -124 60 -182q51 -51 149 -51q154 0 232 119q63 96 63 237v590h180v-1073zM661 -344h-181v205h181v-205z" />
    <glyph glyph-name="uhorn" unicode="&#x1b0;" 
d="M1003 1004q13 4 31 20q10 12 14 16q27 25 34 53.5t7 69.5h-114v127h196v-180q0 -57 -61 -119q-53 -47 -107 -69v-922h-172v156l-4 4q-57 -97 -137 -145t-203 -48q-139 0 -231 70q-117 88 -117 266v770h180v-713q0 -124 60 -182q51 -51 149 -51q154 0 232 119
q63 96 63 237v590h180v-69z" />
    <glyph glyph-name="uni1EEB" unicode="&#x1eeb;" 
d="M521 1217l-270 286h225l180 -286h-135zM1003 1004q13 4 31 20q10 12 14 16q27 25 34 53.5t7 69.5h-114v127h196v-180q0 -57 -61 -119q-53 -47 -107 -69v-922h-172v156l-4 4q-57 -97 -137 -145t-203 -48q-139 0 -231 70q-117 88 -117 266v770h180v-713q0 -124 60 -182
q51 -51 149 -51q154 0 232 119q63 96 63 237v590h180v-69z" />
    <glyph glyph-name="uni1EE9" unicode="&#x1ee9;" 
d="M451 1217l180 286h225l-270 -286h-135zM1003 1004q13 4 31 20q10 12 14 16q27 25 34 53.5t7 69.5h-114v127h196v-180q0 -57 -61 -119q-53 -47 -107 -69v-922h-172v156l-4 4q-57 -97 -137 -145t-203 -48q-139 0 -231 70q-117 88 -117 266v770h180v-713q0 -124 60 -182
q51 -51 149 -51q154 0 232 119q63 96 63 237v590h180v-69z" />
    <glyph glyph-name="uni1EED" unicode="&#x1eed;" 
d="M629 1178h-121q0 71 15 107t74.5 78t59.5 93q0 49 -26.5 70.5t-61.5 21.5q-55 0 -76.5 -30.5t-21.5 -75.5l-131 -2q0 110 71 168q62 49 150 49q78 0 137 -31q99 -51 99 -166q0 -53 -26 -90t-85 -80q-33 -22 -45 -43.5t-12 -68.5zM1003 1004q13 4 31 20q10 12 14 16
q27 25 34 53.5t7 69.5h-114v127h196v-180q0 -57 -61 -119q-53 -47 -107 -69v-922h-172v156l-4 4q-57 -97 -137 -145t-203 -48q-139 0 -231 70q-117 88 -117 266v770h180v-713q0 -124 60 -182q51 -51 149 -51q154 0 232 119q63 96 63 237v590h180v-69z" />
    <glyph glyph-name="uni1EEF" unicode="&#x1eef;" 
d="M856 1479h102q-12 -95 -67.5 -158.5t-136.5 -63.5q-25 0 -50.5 5.5t-72.5 19.5l-54 21q-26 8 -63 18t-59 10q-39 0 -61.5 -23.5t-37.5 -66.5h-98q12 98 64.5 159.5t148.5 61.5q35 0 67.5 -9t71.5 -23l45 -17q72 -29 99 -29q53 0 77 33q17 21 25 62zM1003 1004q13 4 31 20
q10 12 14 16q27 25 34 53.5t7 69.5h-114v127h196v-180q0 -57 -61 -119q-53 -47 -107 -69v-922h-172v156l-4 4q-57 -97 -137 -145t-203 -48q-139 0 -231 70q-117 88 -117 266v770h180v-713q0 -124 60 -182q51 -51 149 -51q154 0 232 119q63 96 63 237v590h180v-69z" />
    <glyph glyph-name="uni1EF1" unicode="&#x1ef1;" 
d="M661 -344h-181v205h181v-205zM1003 1004q13 4 31 20q10 12 14 16q27 25 34 53.5t7 69.5h-114v127h196v-180q0 -57 -61 -119q-53 -47 -107 -69v-922h-172v156l-4 4q-57 -97 -137 -145t-203 -48q-139 0 -231 70q-117 88 -117 266v770h180v-713q0 -124 60 -182
q51 -51 149 -51q154 0 232 119q63 96 63 237v590h180v-69z" />
    <glyph glyph-name="ohorn" unicode="&#x1a1;" 
d="M904 979q11 2 33.5 22.5t36.5 34.5q27 25 36 53.5t9 65.5h-115v127h197v-180q0 -58 -61 -119q-23 -20 -44.5 -39.5t-37.5 -25.5q55 -76 82.5 -176.5t27.5 -204.5q0 -228 -121 -385q-137 -181 -378 -181q-240 0 -375 179q-121 157 -121 387q0 231 119 387q135 178 377 178
q213 0 335 -123zM257 537q0 -152 58 -258q82 -152 254 -152q170 0 252 149q59 109 59 261q0 151 -57 258q-82 151 -254 151q-170 0 -252 -149q-60 -109 -60 -260z" />
    <glyph glyph-name="uni1EDD" unicode="&#x1edd;" horiz-adv-x="1179" 
d="M522 1217l-271 286h226l180 -286h-135zM905 979q11 2 33.5 22.5t36.5 34.5q27 25 36 53.5t9 65.5h-115v127h197v-180q0 -58 -61 -119q-23 -20 -44.5 -39.5t-37.5 -25.5q55 -76 82.5 -176.5t27.5 -204.5q0 -228 -121 -385q-137 -181 -378 -181q-240 0 -375 179
q-121 157 -121 387q0 231 119 387q135 178 377 178q213 0 335 -123zM258 537q0 -152 58 -258q82 -152 254 -152q170 0 252 149q59 109 59 261q0 151 -57 258q-82 151 -254 151q-170 0 -252 -149q-60 -109 -60 -260z" />
    <glyph glyph-name="uni1EDB" unicode="&#x1edb;" horiz-adv-x="1179" 
d="M451 1217l180 286h226l-271 -286h-135zM905 979q11 2 33.5 22.5t36.5 34.5q27 25 36 53.5t9 65.5h-115v127h197v-180q0 -58 -61 -119q-23 -20 -44.5 -39.5t-37.5 -25.5q55 -76 82.5 -176.5t27.5 -204.5q0 -228 -121 -385q-137 -181 -378 -181q-240 0 -375 179
q-121 157 -121 387q0 231 119 387q135 178 377 178q213 0 335 -123zM258 537q0 -152 58 -258q82 -152 254 -152q170 0 252 149q59 109 59 261q0 151 -57 258q-82 151 -254 151q-170 0 -252 -149q-60 -109 -60 -260z" />
    <glyph glyph-name="uni1EDF" unicode="&#x1edf;" horiz-adv-x="1179" 
d="M629 1178h-121q0 71 15.5 107t75 78t59.5 93q0 49 -26.5 70.5t-61.5 21.5q-56 0 -77.5 -30.5t-21.5 -75.5l-131 -2q0 110 72 168q61 49 150 49q77 0 137 -31q98 -51 98 -166q0 -53 -25.5 -90t-85.5 -80q-32 -22 -44.5 -43.5t-12.5 -68.5zM905 979q11 2 33.5 22.5
t36.5 34.5q27 25 36 53.5t9 65.5h-115v127h197v-180q0 -58 -61 -119q-23 -20 -44.5 -39.5t-37.5 -25.5q55 -76 82.5 -176.5t27.5 -204.5q0 -228 -121 -385q-137 -181 -378 -181q-240 0 -375 179q-121 157 -121 387q0 231 119 387q135 178 377 178q213 0 335 -123zM258 537
q0 -152 58 -258q82 -152 254 -152q170 0 252 149q59 109 59 261q0 151 -57 258q-82 151 -254 151q-170 0 -252 -149q-60 -109 -60 -260z" />
    <glyph glyph-name="uni1EE1" unicode="&#x1ee1;" horiz-adv-x="1179" 
d="M817 1479h102q-12 -95 -67.5 -158.5t-137.5 -63.5q-24 0 -50 5.5t-73 19.5l-53 21q-27 8 -63.5 18t-59.5 10q-39 0 -61.5 -23.5t-36.5 -66.5h-99q13 98 65 159.5t148 61.5q35 0 68 -9t72 -23l45 -17q71 -29 98 -29q53 0 78 33q16 21 25 62zM905 979q11 2 33.5 22.5
t36.5 34.5q27 25 36 53.5t9 65.5h-115v127h197v-180q0 -58 -61 -119q-23 -20 -44.5 -39.5t-37.5 -25.5q55 -76 82.5 -176.5t27.5 -204.5q0 -228 -121 -385q-137 -181 -378 -181q-240 0 -375 179q-121 157 -121 387q0 231 119 387q135 178 377 178q213 0 335 -123zM258 537
q0 -152 58 -258q82 -152 254 -152q170 0 252 149q59 109 59 261q0 151 -57 258q-82 151 -254 151q-170 0 -252 -149q-60 -109 -60 -260z" />
    <glyph glyph-name="uni1EE3" unicode="&#x1ee3;" horiz-adv-x="1179" 
d="M661 -344h-180v205h180v-205zM905 979q11 2 33.5 22.5t36.5 34.5q27 25 36 53.5t9 65.5h-115v127h197v-180q0 -58 -61 -119q-23 -20 -44.5 -39.5t-37.5 -25.5q55 -76 82.5 -176.5t27.5 -204.5q0 -228 -121 -385q-137 -181 -378 -181q-240 0 -375 179q-121 157 -121 387
q0 231 119 387q135 178 377 178q213 0 335 -123zM258 537q0 -152 58 -258q82 -152 254 -152q170 0 252 149q59 109 59 261q0 151 -57 258q-82 151 -254 151q-170 0 -252 -149q-60 -109 -60 -260z" />
    <glyph glyph-name="ygrave" unicode="&#x1ef3;" horiz-adv-x="1085" 
d="M802 1073h201q-94 -264 -187.5 -522t-197.5 -531q-129 -325 -189.5 -391.5t-232.5 -66.5q-16 0 -27 2q-30 10 -47 14v164q17 -6 46.5 -13.5t60.5 -7.5q67 0 96 39t96 211l-397 1102h205l282 -872zM521 1217l-271 286h226l180 -286h-135z" />
    <glyph glyph-name="glyph234" unicode="&#xfd;" horiz-adv-x="1085" 
d="M802 1073h201q-94 -264 -187.5 -522t-197.5 -531q-129 -325 -189.5 -391.5t-232.5 -66.5q-16 0 -27 2q-30 10 -47 14v164q17 -6 46.5 -13.5t60.5 -7.5q67 0 96 39t96 211l-397 1102h205l282 -872zM440 1217l181 286h225l-270 -286h-136z" />
    <glyph glyph-name="uni1EF7" unicode="&#x1ef7;" horiz-adv-x="1085" 
d="M802 1073h201q-94 -264 -187.5 -522t-197.5 -531q-129 -325 -189.5 -391.5t-232.5 -66.5q-16 0 -27 2q-30 10 -47 14v164q17 -6 46.5 -13.5t60.5 -7.5q67 0 96 39t96 211l-397 1102h205l282 -872zM597 1178h-121q0 71 15.5 107t75 78t59.5 93q0 49 -26.5 70.5t-61.5 21.5
q-55 0 -76.5 -30.5t-21.5 -75.5l-132 -2q0 110 72 168q62 49 150 49q78 0 137 -31q98 -51 98 -166q0 -53 -25.5 -90t-84.5 -80q-33 -22 -45.5 -43.5t-12.5 -68.5z" />
    <glyph glyph-name="uni1EF9" unicode="&#x1ef9;" horiz-adv-x="1085" 
d="M802 1073h201q-94 -264 -187.5 -522t-197.5 -531q-129 -325 -189.5 -391.5t-232.5 -66.5q-16 0 -27 2q-30 10 -47 14v164q17 -6 46.5 -13.5t60.5 -7.5q67 0 96 39t96 211l-397 1102h205l282 -872zM816 1479h102q-12 -95 -67.5 -158.5t-137.5 -63.5q-24 0 -50 5.5
t-73 19.5l-53 21q-26 8 -63 18t-60 10q-39 0 -61.5 -23.5t-36.5 -66.5h-98q12 98 64 159.5t149 61.5q34 0 67 -9t72 -23l45 -17q72 -29 98 -29q54 0 78 33q16 21 25 62z" />
    <glyph glyph-name="uni1EF5" unicode="&#x1ef5;" horiz-adv-x="1085" 
d="M802 1073h201q-94 -264 -187.5 -522t-197.5 -531q-129 -325 -189.5 -391.5t-232.5 -66.5q-16 0 -27 2q-30 10 -47 14v164q17 -6 46.5 -13.5t60.5 -7.5q67 0 96 39t96 211l-397 1102h205l282 -872zM901 -324h-181v205h181v-205z" />
    <glyph glyph-name="divide" unicode="&#xf7;" horiz-adv-x="1706" 
 />
    <glyph glyph-name="ugrave" horiz-adv-x="582" 
 />
    <glyph glyph-name="uacute" horiz-adv-x="580" 
 />
    <glyph glyph-name="yacute" horiz-adv-x="629" 
 />
    <glyph glyph-name="Ccaron" unicode="&#x10c;" horiz-adv-x="1274" 
 />
    <glyph glyph-name="ccaron" unicode="&#x10d;" horiz-adv-x="922" 
 />
    <glyph glyph-name="Dslash" unicode="&#x110;" horiz-adv-x="1568" 
d="M757 844v-176h-393v-496h385q197 0 311.5 148.5t114.5 424.5q0 273 -115.5 415.5t-322.5 142.5h-373v-459h393zM61 668v176h106v626h594q285 0 452 -195.5t167 -516.5q0 -129 -29 -252q-51 -213 -168 -338q-159 -168 -430 -168h-586v668h-106z" />
    <glyph glyph-name="dcroat" unicode="&#x111;" 
d="M1023 1200v-1200h-172v147q-55 -98 -145 -143q-72 -37 -162 -37q-248 0 -373 203q-98 160 -98 399q0 234 118 383.5t328 149.5q127 0 216 -66q45 -32 104 -114l4 12v258h-258v156h258v122h180v-127h82v-143h-82zM257 541q0 -185 75 -299.5t216 -114.5q111 0 189 72
q102 94 102 288q0 185 -45 291q-70 164 -242 164q-182 0 -252 -149q-43 -93 -43 -252z" />
    <glyph glyph-name="quoteleft" unicode="&#x2018;" horiz-adv-x="487" 
d="M348 1180v-217h-213v200q0 131 46 213t167 111v-98q-70 -11 -94 -84q-17 -48 -17 -125h111z" />
    <glyph glyph-name="quoteright" unicode="&#x2019;" horiz-adv-x="487" 
d="M110 1253v217h213v-200q0 -127 -45 -205q-51 -88 -168 -115v94q68 11 92 84q14 46 14 125h-106z" />
    <glyph glyph-name="quotedblleft" unicode="&#x201c;" horiz-adv-x="737" 
d="M630 1180v-217h-213v200q0 131 46 213t167 111v-98q-70 -11 -94 -84q-17 -48 -17 -125h111zM290 1180v-217h-213v200q0 129 48 212t165 112v-98q-68 -11 -92 -84q-15 -45 -15 -125h107z" />
    <glyph glyph-name="quotedblright" unicode="&#x201d;" horiz-adv-x="737" 
d="M53 1253v217h213v-200q0 -129 -43 -205q-51 -88 -170 -115v94q70 11 94 84q17 48 17 125h-111zM393 1253v217h213v-200q0 -127 -45 -205q-51 -88 -168 -115v94q68 11 92 84q14 46 14 125h-106z" />
    <glyph glyph-name="ellipsis" unicode="&#x2026;" horiz-adv-x="1245" 
d="M372 209v-209h-188v209h188zM704 209v-209h-188v209h188zM1036 209v-209h-188v209h188z" />
    </font>
</defs>
</svg>
